<svg width="529" height="258" viewBox="0 0 529 258" fill="none" xmlns="http://www.w3.org/2000/svg">
<path d="M0 45C0 20.1472 20.1472 0 45 0H495C513.778 0 529 15.2223 529 34V213C529 237.853 508.853 258 484 258H34C15.2223 258 0 242.778 0 224V45Z" fill="#D4B9DB" fill-opacity="0.95"/>
<path d="M142.776 75.875C141.826 75.875 140.967 76.0417 140.201 76.375C139.434 76.6917 138.784 77.1667 138.251 77.8C137.717 78.4167 137.309 79.175 137.026 80.075C136.742 80.9583 136.601 81.9583 136.601 83.075C136.601 84.5417 136.826 85.8167 137.276 86.9C137.742 87.9833 138.426 88.8167 139.326 89.4C140.242 89.9833 141.384 90.275 142.751 90.275C143.534 90.275 144.276 90.2083 144.976 90.075C145.676 89.9417 146.359 89.775 147.026 89.575V91.525C146.359 91.775 145.667 91.9583 144.951 92.075C144.251 92.1917 143.409 92.25 142.426 92.25C140.609 92.25 139.092 91.875 137.876 91.125C136.659 90.375 135.742 89.3083 135.126 87.925C134.526 86.5417 134.226 84.9167 134.226 83.05C134.226 81.7 134.409 80.4667 134.776 79.35C135.159 78.2333 135.709 77.2667 136.426 76.45C137.159 75.6333 138.059 75.0083 139.126 74.575C140.192 74.125 141.417 73.9 142.801 73.9C143.717 73.9 144.601 73.9917 145.451 74.175C146.301 74.3583 147.059 74.6167 147.726 74.95L146.826 76.85C146.276 76.6 145.659 76.375 144.976 76.175C144.309 75.975 143.576 75.875 142.776 75.875ZM155.697 78.375C157.33 78.375 158.538 78.7333 159.322 79.45C160.105 80.1667 160.497 81.3083 160.497 82.875V92H158.897L158.472 90.1H158.372C157.988 90.5833 157.588 90.9917 157.172 91.325C156.772 91.6417 156.305 91.875 155.772 92.025C155.255 92.175 154.622 92.25 153.872 92.25C153.072 92.25 152.347 92.1083 151.697 91.825C151.063 91.5417 150.563 91.1083 150.197 90.525C149.83 89.925 149.647 89.175 149.647 88.275C149.647 86.9417 150.172 85.9167 151.222 85.2C152.272 84.4667 153.888 84.0667 156.072 84L158.347 83.925V83.125C158.347 82.0083 158.105 81.2333 157.622 80.8C157.138 80.3667 156.455 80.15 155.572 80.15C154.872 80.15 154.205 80.2583 153.572 80.475C152.938 80.675 152.347 80.9083 151.797 81.175L151.122 79.525C151.705 79.2083 152.397 78.9417 153.197 78.725C153.997 78.4917 154.83 78.375 155.697 78.375ZM156.347 85.525C154.68 85.5917 153.522 85.8583 152.872 86.325C152.238 86.7917 151.922 87.45 151.922 88.3C151.922 89.05 152.147 89.6 152.597 89.95C153.063 90.3 153.655 90.475 154.372 90.475C155.505 90.475 156.447 90.1667 157.197 89.55C157.947 88.9167 158.322 87.95 158.322 86.65V85.45L156.347 85.525ZM179.01 78.6V92H177.035V83.45C177.035 83.1 177.044 82.7333 177.06 82.35C177.094 81.9667 177.127 81.5917 177.16 81.225H177.085L172.71 92H170.86L166.61 81.225H166.535C166.569 81.5917 166.585 81.9667 166.585 82.35C166.602 82.7333 166.61 83.125 166.61 83.525V92H164.635V78.6H167.56L171.785 89.375L176.085 78.6H179.01ZM194.938 85.275C194.938 86.3917 194.788 87.3833 194.488 88.25C194.204 89.1 193.788 89.825 193.238 90.425C192.704 91.025 192.046 91.4833 191.263 91.8C190.496 92.1 189.638 92.25 188.688 92.25C187.804 92.25 186.988 92.1 186.238 91.8C185.488 91.4833 184.838 91.025 184.288 90.425C183.738 89.825 183.304 89.1 182.988 88.25C182.688 87.3833 182.538 86.3917 182.538 85.275C182.538 83.7917 182.788 82.5417 183.288 81.525C183.788 80.4917 184.504 79.7083 185.438 79.175C186.371 78.625 187.479 78.35 188.763 78.35C189.979 78.35 191.046 78.625 191.963 79.175C192.896 79.7083 193.621 80.4917 194.138 81.525C194.671 82.5417 194.938 83.7917 194.938 85.275ZM184.813 85.275C184.813 86.325 184.946 87.2417 185.213 88.025C185.496 88.7917 185.929 89.3833 186.513 89.8C187.096 90.2167 187.838 90.425 188.738 90.425C189.638 90.425 190.379 90.2167 190.963 89.8C191.546 89.3833 191.971 88.7917 192.238 88.025C192.521 87.2417 192.663 86.325 192.663 85.275C192.663 84.2083 192.521 83.3 192.238 82.55C191.954 81.8 191.521 81.225 190.938 80.825C190.371 80.4083 189.629 80.2 188.713 80.2C187.346 80.2 186.354 80.65 185.738 81.55C185.121 82.45 184.813 83.6917 184.813 85.275ZM209.274 73.05C209.208 73.8833 208.999 74.5833 208.649 75.15C208.316 75.7167 207.816 76.1417 207.149 76.425C206.483 76.7083 205.616 76.85 204.549 76.85C203.466 76.85 202.591 76.7083 201.924 76.425C201.274 76.1417 200.799 75.725 200.499 75.175C200.199 74.6083 200.016 73.9 199.949 73.05H201.999C202.083 73.95 202.316 74.5583 202.699 74.875C203.099 75.175 203.733 75.325 204.599 75.325C205.366 75.325 205.966 75.1667 206.399 74.85C206.849 74.5167 207.116 73.9167 207.199 73.05H209.274ZM200.499 86.775C200.499 86.925 200.491 87.1417 200.474 87.425C200.474 87.6917 200.466 87.9833 200.449 88.3C200.433 88.6 200.416 88.8917 200.399 89.175C200.383 89.4417 200.366 89.6583 200.349 89.825L207.524 78.6H210.224V92H208.174V84.1C208.174 83.8333 208.174 83.4833 208.174 83.05C208.191 82.6167 208.208 82.1917 208.224 81.775C208.241 81.3417 208.258 81.0167 208.274 80.8L201.149 92H198.424V78.6H200.499V86.775ZM232.697 92H230.472V80.425H226.522C226.355 82.5417 226.147 84.35 225.897 85.85C225.647 87.3333 225.33 88.5417 224.947 89.475C224.563 90.4083 224.105 91.0917 223.572 91.525C223.038 91.9583 222.413 92.175 221.697 92.175C221.48 92.175 221.263 92.1583 221.047 92.125C220.847 92.1083 220.68 92.0667 220.547 92V90.35C220.647 90.3833 220.755 90.4083 220.872 90.425C220.988 90.4417 221.105 90.45 221.222 90.45C221.588 90.45 221.922 90.3 222.222 90C222.522 89.7 222.788 89.2417 223.022 88.625C223.272 88.0083 223.497 87.2333 223.697 86.3C223.897 85.35 224.072 84.2333 224.222 82.95C224.372 81.6667 224.505 80.2167 224.622 78.6H232.697V92ZM234.85 78.6H237.2L240.1 86.225C240.266 86.675 240.416 87.1083 240.55 87.525C240.7 87.9417 240.833 88.35 240.95 88.75C241.066 89.1333 241.158 89.5083 241.225 89.875H241.325C241.425 89.4583 241.583 88.9167 241.8 88.25C242.016 87.5667 242.241 86.8833 242.475 86.2L245.2 78.6H247.575L241.8 93.85C241.483 94.6833 241.108 95.4083 240.675 96.025C240.258 96.6583 239.741 97.1417 239.125 97.475C238.525 97.825 237.791 98 236.925 98C236.525 98 236.175 97.975 235.875 97.925C235.575 97.8917 235.316 97.85 235.1 97.8V96.05C235.283 96.0833 235.5 96.1167 235.75 96.15C236.016 96.1833 236.291 96.2 236.575 96.2C237.091 96.2 237.533 96.1 237.9 95.9C238.283 95.7167 238.608 95.4417 238.875 95.075C239.141 94.725 239.366 94.3083 239.55 93.825L240.25 92.05L234.85 78.6ZM251.619 83.475C251.619 84.2583 251.836 84.8417 252.269 85.225C252.719 85.5917 253.361 85.775 254.194 85.775C255.027 85.775 255.786 85.65 256.469 85.4C257.152 85.1333 257.852 84.7833 258.569 84.35V78.6H260.769V92H258.569V86.025C257.819 86.5083 257.077 86.8917 256.344 87.175C255.627 87.4417 254.761 87.575 253.744 87.575C252.377 87.575 251.311 87.2167 250.544 86.5C249.794 85.7833 249.419 84.825 249.419 83.625V78.6H251.619V83.475ZM283.201 78.6V92H265.026V78.6H267.226V90.15H273.001V78.6H275.201V90.15H281.001V78.6H283.201ZM292.662 78.35C293.812 78.35 294.795 78.6 295.612 79.1C296.445 79.6 297.078 80.3083 297.512 81.225C297.962 82.125 298.187 83.1833 298.187 84.4V85.725H289.012C289.045 87.2417 289.428 88.4 290.162 89.2C290.912 89.9833 291.953 90.375 293.287 90.375C294.137 90.375 294.887 90.3 295.537 90.15C296.203 89.9833 296.887 89.75 297.587 89.45V91.375C296.903 91.675 296.228 91.8917 295.562 92.025C294.895 92.175 294.103 92.25 293.187 92.25C291.92 92.25 290.795 91.9917 289.812 91.475C288.845 90.9583 288.087 90.1917 287.537 89.175C287.003 88.1417 286.737 86.8833 286.737 85.4C286.737 83.9333 286.978 82.675 287.462 81.625C287.962 80.575 288.653 79.7667 289.537 79.2C290.437 78.6333 291.478 78.35 292.662 78.35ZM292.637 80.15C291.587 80.15 290.753 80.4917 290.137 81.175C289.537 81.8417 289.178 82.775 289.062 83.975H295.887C295.887 83.2083 295.77 82.5417 295.537 81.975C295.303 81.4083 294.945 80.9667 294.462 80.65C293.995 80.3167 293.387 80.15 292.637 80.15ZM312.448 73.05C312.381 73.8833 312.173 74.5833 311.823 75.15C311.49 75.7167 310.99 76.1417 310.323 76.425C309.656 76.7083 308.79 76.85 307.723 76.85C306.64 76.85 305.765 76.7083 305.098 76.425C304.448 76.1417 303.973 75.725 303.673 75.175C303.373 74.6083 303.19 73.9 303.123 73.05H305.173C305.256 73.95 305.49 74.5583 305.873 74.875C306.273 75.175 306.906 75.325 307.773 75.325C308.54 75.325 309.14 75.1667 309.573 74.85C310.023 74.5167 310.29 73.9167 310.373 73.05H312.448ZM303.673 86.775C303.673 86.925 303.665 87.1417 303.648 87.425C303.648 87.6917 303.64 87.9833 303.623 88.3C303.606 88.6 303.59 88.8917 303.573 89.175C303.556 89.4417 303.54 89.6583 303.523 89.825L310.698 78.6H313.398V92H311.348V84.1C311.348 83.8333 311.348 83.4833 311.348 83.05C311.365 82.6167 311.381 82.1917 311.398 81.775C311.415 81.3417 311.431 81.0167 311.448 80.8L304.323 92H301.598V78.6H303.673V86.775ZM340.045 78.6V92H338.07V83.45C338.07 83.1 338.079 82.7333 338.095 82.35C338.129 81.9667 338.162 81.5917 338.195 81.225H338.12L333.745 92H331.895L327.645 81.225H327.57C327.604 81.5917 327.62 81.9667 327.62 82.35C327.637 82.7333 327.645 83.125 327.645 83.525V92H325.67V78.6H328.595L332.82 89.375L337.12 78.6H340.045ZM349.398 78.375C351.031 78.375 352.239 78.7333 353.023 79.45C353.806 80.1667 354.198 81.3083 354.198 82.875V92H352.598L352.173 90.1H352.073C351.689 90.5833 351.289 90.9917 350.873 91.325C350.473 91.6417 350.006 91.875 349.473 92.025C348.956 92.175 348.323 92.25 347.573 92.25C346.773 92.25 346.048 92.1083 345.398 91.825C344.764 91.5417 344.264 91.1083 343.898 90.525C343.531 89.925 343.348 89.175 343.348 88.275C343.348 86.9417 343.873 85.9167 344.923 85.2C345.973 84.4667 347.589 84.0667 349.773 84L352.048 83.925V83.125C352.048 82.0083 351.806 81.2333 351.323 80.8C350.839 80.3667 350.156 80.15 349.273 80.15C348.573 80.15 347.906 80.2583 347.273 80.475C346.639 80.675 346.048 80.9083 345.498 81.175L344.823 79.525C345.406 79.2083 346.098 78.9417 346.898 78.725C347.698 78.4917 348.531 78.375 349.398 78.375ZM350.048 85.525C348.381 85.5917 347.223 85.8583 346.573 86.325C345.939 86.7917 345.623 87.45 345.623 88.3C345.623 89.05 345.848 89.6 346.298 89.95C346.764 90.3 347.356 90.475 348.073 90.475C349.206 90.475 350.148 90.1667 350.898 89.55C351.648 88.9167 352.023 87.95 352.023 86.65V85.45L350.048 85.525ZM372.711 78.6V92H370.736V83.45C370.736 83.1 370.745 82.7333 370.761 82.35C370.795 81.9667 370.828 81.5917 370.861 81.225H370.786L366.411 92H364.561L360.311 81.225H360.236C360.27 81.5917 360.286 81.9667 360.286 82.35C360.303 82.7333 360.311 83.125 360.311 83.525V92H358.336V78.6H361.261L365.486 89.375L369.786 78.6H372.711ZM382.164 78.35C383.314 78.35 384.297 78.6 385.114 79.1C385.947 79.6 386.58 80.3083 387.014 81.225C387.464 82.125 387.689 83.1833 387.689 84.4V85.725H378.514C378.547 87.2417 378.93 88.4 379.664 89.2C380.414 89.9833 381.455 90.375 382.789 90.375C383.639 90.375 384.389 90.3 385.039 90.15C385.705 89.9833 386.389 89.75 387.089 89.45V91.375C386.405 91.675 385.73 91.8917 385.064 92.025C384.397 92.175 383.605 92.25 382.689 92.25C381.422 92.25 380.297 91.9917 379.314 91.475C378.347 90.9583 377.589 90.1917 377.039 89.175C376.505 88.1417 376.239 86.8833 376.239 85.4C376.239 83.9333 376.48 82.675 376.964 81.625C377.464 80.575 378.155 79.7667 379.039 79.2C379.939 78.6333 380.98 78.35 382.164 78.35ZM382.139 80.15C381.089 80.15 380.255 80.4917 379.639 81.175C379.039 81.8417 378.68 82.775 378.564 83.975H385.389C385.389 83.2083 385.272 82.5417 385.039 81.975C384.805 81.4083 384.447 80.9667 383.964 80.65C383.497 80.3167 382.889 80.15 382.139 80.15ZM390.806 74.3975C391.115 74.4788 391.408 74.5439 391.685 74.5928C391.962 74.6253 392.206 74.6579 392.417 74.6904C392.662 74.723 392.889 74.7474 393.101 74.7637C393.329 74.7799 393.597 74.7962 393.907 74.8125C394.183 74.8288 394.517 74.8369 394.908 74.8369C395.298 74.8369 395.762 74.8369 396.299 74.8369C395.827 75.96 395.445 76.9121 395.152 77.6934C394.859 78.4583 394.631 79.0931 394.468 79.5977C394.289 80.1836 394.159 80.6637 394.078 81.0381C394.013 81.4124 393.931 81.8682 393.833 82.4053C393.752 82.8773 393.638 83.4551 393.492 84.1387C393.345 84.8223 393.182 85.6361 393.003 86.5801L390.855 86.4824C390.985 85.6198 391.075 84.8874 391.124 84.2852C391.172 83.6667 391.213 83.154 391.246 82.7471C391.278 82.2751 391.294 81.8844 391.294 81.5752C391.294 81.2497 391.27 80.7614 391.221 80.1104C391.189 79.5732 391.14 78.849 391.075 77.9375C391.01 77.0098 390.92 75.8298 390.806 74.3975ZM393.492 88.4355C393.606 88.6146 393.671 88.818 393.687 89.0459C393.72 89.2575 393.703 89.4772 393.638 89.7051C393.589 89.9167 393.484 90.1201 393.321 90.3154C393.174 90.5107 392.971 90.6654 392.71 90.7793C392.19 91.0234 391.726 91.0885 391.319 90.9746C390.912 90.8444 390.611 90.6328 390.416 90.3398C390.302 90.1771 390.236 89.998 390.22 89.8027C390.22 89.5911 390.261 89.3877 390.342 89.1924C390.424 88.9808 390.554 88.7855 390.733 88.6064C390.912 88.4274 391.14 88.2809 391.417 88.167C391.954 87.9391 392.393 87.8577 392.735 87.9229C393.093 87.988 393.345 88.1589 393.492 88.4355ZM27.6062 122V104.15H41.0062V122H38.7812V106.125H29.8562V122H27.6062ZM43.4923 108.6H45.8423L48.7423 116.225C48.909 116.675 49.059 117.108 49.1923 117.525C49.3423 117.942 49.4756 118.35 49.5923 118.75C49.709 119.133 49.8006 119.508 49.8673 119.875H49.9673C50.0673 119.458 50.2256 118.917 50.4423 118.25C50.659 117.567 50.884 116.883 51.1173 116.2L53.8423 108.6H56.2173L50.4423 123.85C50.1256 124.683 49.7506 125.408 49.3173 126.025C48.9006 126.658 48.384 127.142 47.7673 127.475C47.1673 127.825 46.434 128 45.5673 128C45.1673 128 44.8173 127.975 44.5173 127.925C44.2173 127.892 43.959 127.85 43.7423 127.8V126.05C43.9256 126.083 44.1423 126.117 44.3923 126.15C44.659 126.183 44.934 126.2 45.2173 126.2C45.734 126.2 46.1756 126.1 46.5423 125.9C46.9256 125.717 47.2506 125.442 47.5173 125.075C47.784 124.725 48.009 124.308 48.1923 123.825L48.8923 122.05L43.4923 108.6ZM63.7114 122.25C62.5281 122.25 61.4698 122.008 60.5364 121.525C59.6198 121.042 58.8948 120.292 58.3614 119.275C57.8448 118.258 57.5864 116.958 57.5864 115.375C57.5864 113.725 57.8614 112.383 58.4114 111.35C58.9614 110.317 59.7031 109.558 60.6364 109.075C61.5864 108.592 62.6614 108.35 63.8614 108.35C64.5448 108.35 65.2031 108.425 65.8364 108.575C66.4698 108.708 66.9864 108.875 67.3864 109.075L66.7114 110.9C66.3114 110.75 65.8448 110.608 65.3114 110.475C64.7781 110.342 64.2781 110.275 63.8114 110.275C62.9114 110.275 62.1698 110.467 61.5864 110.85C61.0031 111.233 60.5698 111.8 60.2864 112.55C60.0031 113.3 59.8614 114.233 59.8614 115.35C59.8614 116.417 60.0031 117.325 60.2864 118.075C60.5698 118.825 60.9948 119.392 61.5614 119.775C62.1281 120.158 62.8364 120.35 63.6864 120.35C64.4198 120.35 65.0614 120.275 65.6114 120.125C66.1781 119.975 66.6948 119.792 67.1614 119.575V121.525C66.7114 121.758 66.2114 121.933 65.6614 122.05C65.1281 122.183 64.4781 122.25 63.7114 122.25ZM79.5981 110.45H75.2231V122H73.0481V110.45H68.7231V108.6H79.5981V110.45ZM88.4128 114.1C89.5795 114.1 90.5461 114.242 91.3128 114.525C92.0795 114.808 92.6545 115.233 93.0378 115.8C93.4378 116.35 93.6378 117.05 93.6378 117.9C93.6378 118.733 93.4461 119.458 93.0628 120.075C92.6961 120.692 92.1211 121.167 91.3378 121.5C90.5545 121.833 89.5461 122 88.3128 122H82.2378V108.6H84.4378V114.1H88.4128ZM91.4378 118.025C91.4378 117.208 91.1461 116.658 90.5628 116.375C89.9961 116.075 89.1961 115.925 88.1628 115.925H84.4378V120.225H88.2128C89.1461 120.225 89.9128 120.058 90.5128 119.725C91.1295 119.392 91.4378 118.825 91.4378 118.025ZM113.014 108.6H115.414L109.689 115.05L115.889 122H113.339L107.289 115.2V122H105.089V108.6H107.289V115.1L113.014 108.6ZM123.397 108.375C125.03 108.375 126.238 108.733 127.022 109.45C127.805 110.167 128.197 111.308 128.197 112.875V122H126.597L126.172 120.1H126.072C125.688 120.583 125.288 120.992 124.872 121.325C124.472 121.642 124.005 121.875 123.472 122.025C122.955 122.175 122.322 122.25 121.572 122.25C120.772 122.25 120.047 122.108 119.397 121.825C118.763 121.542 118.263 121.108 117.897 120.525C117.53 119.925 117.347 119.175 117.347 118.275C117.347 116.942 117.872 115.917 118.922 115.2C119.972 114.467 121.588 114.067 123.772 114L126.047 113.925V113.125C126.047 112.008 125.805 111.233 125.322 110.8C124.838 110.367 124.155 110.15 123.272 110.15C122.572 110.15 121.905 110.258 121.272 110.475C120.638 110.675 120.047 110.908 119.497 111.175L118.822 109.525C119.405 109.208 120.097 108.942 120.897 108.725C121.697 108.492 122.53 108.375 123.397 108.375ZM124.047 115.525C122.38 115.592 121.222 115.858 120.572 116.325C119.938 116.792 119.622 117.45 119.622 118.3C119.622 119.05 119.847 119.6 120.297 119.95C120.763 120.3 121.355 120.475 122.072 120.475C123.205 120.475 124.147 120.167 124.897 119.55C125.647 118.917 126.022 117.95 126.022 116.65V115.45L124.047 115.525ZM148.41 108.6L142.885 115.1L148.885 122H146.385L140.585 115.2V122H138.535V115.2L132.735 122H130.235L136.235 115.1L130.71 108.6H133.11L138.535 115.1V108.6H140.585V115.1L146.035 108.6H148.41ZM161.035 108.6V120.15H162.985V126.65H160.86V122H151.535V126.65H149.435V120.15H150.51C151.277 119.083 151.91 117.925 152.41 116.675C152.927 115.408 153.31 114.092 153.56 112.725C153.827 111.342 153.969 109.967 153.985 108.6H161.035ZM155.935 110.325C155.869 111.458 155.694 112.633 155.41 113.85C155.127 115.05 154.76 116.2 154.31 117.3C153.877 118.4 153.369 119.35 152.785 120.15H158.91V110.325H155.935ZM165.612 122V108.6H167.812V114.1H171.287C172.453 114.1 173.412 114.242 174.162 114.525C174.912 114.808 175.47 115.233 175.837 115.8C176.203 116.35 176.387 117.05 176.387 117.9C176.387 118.733 176.203 119.458 175.837 120.075C175.487 120.692 174.928 121.167 174.162 121.5C173.412 121.833 172.42 122 171.187 122H165.612ZM170.987 120.225C171.937 120.225 172.712 120.067 173.312 119.75C173.912 119.417 174.212 118.842 174.212 118.025C174.212 117.208 173.937 116.658 173.387 116.375C172.837 116.075 172.045 115.925 171.012 115.925H167.812V120.225H170.987ZM178.612 122V108.6H180.812V122H178.612ZM195.92 103.05C195.853 103.883 195.645 104.583 195.295 105.15C194.961 105.717 194.461 106.142 193.795 106.425C193.128 106.708 192.261 106.85 191.195 106.85C190.111 106.85 189.236 106.708 188.57 106.425C187.92 106.142 187.445 105.725 187.145 105.175C186.845 104.608 186.661 103.9 186.595 103.05H188.645C188.728 103.95 188.961 104.558 189.345 104.875C189.745 105.175 190.378 105.325 191.245 105.325C192.011 105.325 192.611 105.167 193.045 104.85C193.495 104.517 193.761 103.917 193.845 103.05H195.92ZM187.145 116.775C187.145 116.925 187.136 117.142 187.12 117.425C187.12 117.692 187.111 117.983 187.095 118.3C187.078 118.6 187.061 118.892 187.045 119.175C187.028 119.442 187.011 119.658 186.995 119.825L194.17 108.6H196.87V122H194.82V114.1C194.82 113.833 194.82 113.483 194.82 113.05C194.836 112.617 194.853 112.192 194.87 111.775C194.886 111.342 194.903 111.017 194.92 110.8L187.795 122H185.07V108.6H187.145V116.775ZM219.092 108.6V120.15H221.042V126.65H218.917V122H209.592V126.65H207.492V120.15H208.567C209.334 119.083 209.967 117.925 210.467 116.675C210.984 115.408 211.367 114.092 211.617 112.725C211.884 111.342 212.025 109.967 212.042 108.6H219.092ZM213.992 110.325C213.925 111.458 213.75 112.633 213.467 113.85C213.184 115.05 212.817 116.2 212.367 117.3C211.934 118.4 211.425 119.35 210.842 120.15H216.967V110.325H213.992ZM228.843 108.35C229.993 108.35 230.977 108.6 231.793 109.1C232.627 109.6 233.26 110.308 233.693 111.225C234.143 112.125 234.368 113.183 234.368 114.4V115.725H225.193C225.227 117.242 225.61 118.4 226.343 119.2C227.093 119.983 228.135 120.375 229.468 120.375C230.318 120.375 231.068 120.3 231.718 120.15C232.385 119.983 233.068 119.75 233.768 119.45V121.375C233.085 121.675 232.41 121.892 231.743 122.025C231.077 122.175 230.285 122.25 229.368 122.25C228.102 122.25 226.977 121.992 225.993 121.475C225.027 120.958 224.268 120.192 223.718 119.175C223.185 118.142 222.918 116.883 222.918 115.4C222.918 113.933 223.16 112.675 223.643 111.625C224.143 110.575 224.835 109.767 225.718 109.2C226.618 108.633 227.66 108.35 228.843 108.35ZM228.818 110.15C227.768 110.15 226.935 110.492 226.318 111.175C225.718 111.842 225.36 112.775 225.243 113.975H232.068C232.068 113.208 231.952 112.542 231.718 111.975C231.485 111.408 231.127 110.967 230.643 110.65C230.177 110.317 229.568 110.15 228.818 110.15ZM239.98 108.6V114.175H247.255V108.6H249.455V122H247.255V116.025H239.98V122H237.78V108.6H239.98ZM259.873 114.1C261.039 114.1 262.006 114.242 262.773 114.525C263.539 114.808 264.114 115.233 264.498 115.8C264.898 116.35 265.098 117.05 265.098 117.9C265.098 118.733 264.906 119.458 264.523 120.075C264.156 120.692 263.581 121.167 262.798 121.5C262.014 121.833 261.006 122 259.773 122H253.698V108.6H255.898V114.1H259.873ZM262.898 118.025C262.898 117.208 262.606 116.658 262.023 116.375C261.456 116.075 260.656 115.925 259.623 115.925H255.898V120.225H259.673C260.606 120.225 261.373 120.058 261.973 119.725C262.589 119.392 262.898 118.825 262.898 118.025ZM287.874 108.6V122H285.674V110.475H278.749V122H276.549V108.6H287.874ZM298.525 108.35C300.175 108.35 301.5 108.925 302.5 110.075C303.517 111.225 304.025 112.958 304.025 115.275C304.025 116.792 303.792 118.075 303.325 119.125C302.875 120.158 302.233 120.942 301.4 121.475C300.583 121.992 299.617 122.25 298.5 122.25C297.817 122.25 297.208 122.158 296.675 121.975C296.142 121.792 295.683 121.558 295.3 121.275C294.933 120.975 294.617 120.65 294.35 120.3H294.2C294.233 120.583 294.267 120.942 294.3 121.375C294.333 121.808 294.35 122.183 294.35 122.5V128H292.15V108.6H293.95L294.25 110.425H294.35C294.617 110.042 294.933 109.692 295.3 109.375C295.683 109.058 296.133 108.808 296.65 108.625C297.183 108.442 297.808 108.35 298.525 108.35ZM298.125 110.2C297.225 110.2 296.5 110.375 295.95 110.725C295.4 111.058 295 111.567 294.75 112.25C294.5 112.933 294.367 113.8 294.35 114.85V115.275C294.35 116.375 294.467 117.308 294.7 118.075C294.933 118.842 295.325 119.425 295.875 119.825C296.442 120.225 297.208 120.425 298.175 120.425C298.992 120.425 299.658 120.2 300.175 119.75C300.708 119.3 301.1 118.692 301.35 117.925C301.617 117.142 301.75 116.25 301.75 115.25C301.75 113.717 301.45 112.492 300.85 111.575C300.267 110.658 299.358 110.2 298.125 110.2ZM309.606 116.775C309.606 116.925 309.597 117.142 309.581 117.425C309.581 117.692 309.572 117.983 309.556 118.3C309.539 118.6 309.522 118.892 309.506 119.175C309.489 119.442 309.472 119.658 309.456 119.825L316.631 108.6H319.331V122H317.281V114.1C317.281 113.833 317.281 113.483 317.281 113.05C317.297 112.617 317.314 112.192 317.331 111.775C317.347 111.342 317.364 111.017 317.381 110.8L310.256 122H307.531V108.6H309.606V116.775ZM325.795 108.6V114.175H333.07V108.6H335.27V122H333.07V116.025H325.795V122H323.595V108.6H325.795ZM351.163 115.275C351.163 116.392 351.013 117.383 350.713 118.25C350.43 119.1 350.013 119.825 349.463 120.425C348.93 121.025 348.272 121.483 347.488 121.8C346.722 122.1 345.863 122.25 344.913 122.25C344.03 122.25 343.213 122.1 342.463 121.8C341.713 121.483 341.063 121.025 340.513 120.425C339.963 119.825 339.53 119.1 339.213 118.25C338.913 117.383 338.763 116.392 338.763 115.275C338.763 113.792 339.013 112.542 339.513 111.525C340.013 110.492 340.73 109.708 341.663 109.175C342.597 108.625 343.705 108.35 344.988 108.35C346.205 108.35 347.272 108.625 348.188 109.175C349.122 109.708 349.847 110.492 350.363 111.525C350.897 112.542 351.163 113.792 351.163 115.275ZM341.038 115.275C341.038 116.325 341.172 117.242 341.438 118.025C341.722 118.792 342.155 119.383 342.738 119.8C343.322 120.217 344.063 120.425 344.963 120.425C345.863 120.425 346.605 120.217 347.188 119.8C347.772 119.383 348.197 118.792 348.463 118.025C348.747 117.242 348.888 116.325 348.888 115.275C348.888 114.208 348.747 113.3 348.463 112.55C348.18 111.8 347.747 111.225 347.163 110.825C346.597 110.408 345.855 110.2 344.938 110.2C343.572 110.2 342.58 110.65 341.963 111.55C341.347 112.45 341.038 113.692 341.038 115.275ZM360.025 122.25C358.842 122.25 357.783 122.008 356.85 121.525C355.933 121.042 355.208 120.292 354.675 119.275C354.158 118.258 353.9 116.958 353.9 115.375C353.9 113.725 354.175 112.383 354.725 111.35C355.275 110.317 356.017 109.558 356.95 109.075C357.9 108.592 358.975 108.35 360.175 108.35C360.858 108.35 361.517 108.425 362.15 108.575C362.783 108.708 363.3 108.875 363.7 109.075L363.025 110.9C362.625 110.75 362.158 110.608 361.625 110.475C361.092 110.342 360.592 110.275 360.125 110.275C359.225 110.275 358.483 110.467 357.9 110.85C357.317 111.233 356.883 111.8 356.6 112.55C356.317 113.3 356.175 114.233 356.175 115.35C356.175 116.417 356.317 117.325 356.6 118.075C356.883 118.825 357.308 119.392 357.875 119.775C358.442 120.158 359.15 120.35 360 120.35C360.733 120.35 361.375 120.275 361.925 120.125C362.492 119.975 363.008 119.792 363.475 119.575V121.525C363.025 121.758 362.525 121.933 361.975 122.05C361.442 122.183 360.792 122.25 360.025 122.25ZM368.737 116.775C368.737 116.925 368.728 117.142 368.712 117.425C368.712 117.692 368.703 117.983 368.687 118.3C368.67 118.6 368.653 118.892 368.637 119.175C368.62 119.442 368.603 119.658 368.587 119.825L375.762 108.6H378.462V122H376.412V114.1C376.412 113.833 376.412 113.483 376.412 113.05C376.428 112.617 376.445 112.192 376.462 111.775C376.478 111.342 376.495 111.017 376.512 110.8L369.387 122H366.662V108.6H368.737V116.775ZM391.976 110.45H387.601V122H385.426V110.45H381.101V108.6H391.976V110.45ZM408.999 108.35C410.649 108.35 411.974 108.925 412.974 110.075C413.99 111.225 414.499 112.958 414.499 115.275C414.499 116.792 414.265 118.075 413.799 119.125C413.349 120.158 412.707 120.942 411.874 121.475C411.057 121.992 410.09 122.25 408.974 122.25C408.29 122.25 407.682 122.158 407.149 121.975C406.615 121.792 406.157 121.558 405.774 121.275C405.407 120.975 405.09 120.65 404.824 120.3H404.674C404.707 120.583 404.74 120.942 404.774 121.375C404.807 121.808 404.824 122.183 404.824 122.5V128H402.624V108.6H404.424L404.724 110.425H404.824C405.09 110.042 405.407 109.692 405.774 109.375C406.157 109.058 406.607 108.808 407.124 108.625C407.657 108.442 408.282 108.35 408.999 108.35ZM408.599 110.2C407.699 110.2 406.974 110.375 406.424 110.725C405.874 111.058 405.474 111.567 405.224 112.25C404.974 112.933 404.84 113.8 404.824 114.85V115.275C404.824 116.375 404.94 117.308 405.174 118.075C405.407 118.842 405.799 119.425 406.349 119.825C406.915 120.225 407.682 120.425 408.649 120.425C409.465 120.425 410.132 120.2 410.649 119.75C411.182 119.3 411.574 118.692 411.824 117.925C412.09 117.142 412.224 116.25 412.224 115.25C412.224 113.717 411.924 112.492 411.324 111.575C410.74 110.658 409.832 110.2 408.599 110.2ZM423.079 108.375C424.713 108.375 425.921 108.733 426.704 109.45C427.488 110.167 427.879 111.308 427.879 112.875V122H426.279L425.854 120.1H425.754C425.371 120.583 424.971 120.992 424.554 121.325C424.154 121.642 423.688 121.875 423.154 122.025C422.638 122.175 422.004 122.25 421.254 122.25C420.454 122.25 419.729 122.108 419.079 121.825C418.446 121.542 417.946 121.108 417.579 120.525C417.213 119.925 417.029 119.175 417.029 118.275C417.029 116.942 417.554 115.917 418.604 115.2C419.654 114.467 421.271 114.067 423.454 114L425.729 113.925V113.125C425.729 112.008 425.488 111.233 425.004 110.8C424.521 110.367 423.838 110.15 422.954 110.15C422.254 110.15 421.588 110.258 420.954 110.475C420.321 110.675 419.729 110.908 419.179 111.175L418.504 109.525C419.088 109.208 419.779 108.942 420.579 108.725C421.379 108.492 422.213 108.375 423.079 108.375ZM423.729 115.525C422.063 115.592 420.904 115.858 420.254 116.325C419.621 116.792 419.304 117.45 419.304 118.3C419.304 119.05 419.529 119.6 419.979 119.95C420.446 120.3 421.038 120.475 421.754 120.475C422.888 120.475 423.829 120.167 424.579 119.55C425.329 118.917 425.704 117.95 425.704 116.65V115.45L423.729 115.525ZM441.968 108.6V120.15H443.918V126.65H441.793V122H432.468V126.65H430.368V120.15H431.443C432.21 119.083 432.843 117.925 433.343 116.675C433.86 115.408 434.243 114.092 434.493 112.725C434.76 111.342 434.901 109.967 434.918 108.6H441.968ZM436.868 110.325C436.801 111.458 436.626 112.633 436.343 113.85C436.06 115.05 435.693 116.2 435.243 117.3C434.81 118.4 434.301 119.35 433.718 120.15H439.843V110.325H436.868ZM458.194 115.275C458.194 116.392 458.044 117.383 457.744 118.25C457.461 119.1 457.044 119.825 456.494 120.425C455.961 121.025 455.303 121.483 454.519 121.8C453.753 122.1 452.894 122.25 451.944 122.25C451.061 122.25 450.244 122.1 449.494 121.8C448.744 121.483 448.094 121.025 447.544 120.425C446.994 119.825 446.561 119.1 446.244 118.25C445.944 117.383 445.794 116.392 445.794 115.275C445.794 113.792 446.044 112.542 446.544 111.525C447.044 110.492 447.761 109.708 448.694 109.175C449.628 108.625 450.736 108.35 452.019 108.35C453.236 108.35 454.303 108.625 455.219 109.175C456.153 109.708 456.878 110.492 457.394 111.525C457.928 112.542 458.194 113.792 458.194 115.275ZM448.069 115.275C448.069 116.325 448.203 117.242 448.469 118.025C448.753 118.792 449.186 119.383 449.769 119.8C450.353 120.217 451.094 120.425 451.994 120.425C452.894 120.425 453.636 120.217 454.219 119.8C454.803 119.383 455.228 118.792 455.494 118.025C455.778 117.242 455.919 116.325 455.919 115.275C455.919 114.208 455.778 113.3 455.494 112.55C455.211 111.8 454.778 111.225 454.194 110.825C453.628 110.408 452.886 110.2 451.969 110.2C450.603 110.2 449.611 110.65 448.994 111.55C448.378 112.45 448.069 113.692 448.069 115.275ZM467.056 122.25C465.873 122.25 464.814 122.008 463.881 121.525C462.964 121.042 462.239 120.292 461.706 119.275C461.189 118.258 460.931 116.958 460.931 115.375C460.931 113.725 461.206 112.383 461.756 111.35C462.306 110.317 463.048 109.558 463.981 109.075C464.931 108.592 466.006 108.35 467.206 108.35C467.889 108.35 468.548 108.425 469.181 108.575C469.814 108.708 470.331 108.875 470.731 109.075L470.056 110.9C469.656 110.75 469.189 110.608 468.656 110.475C468.123 110.342 467.623 110.275 467.156 110.275C466.256 110.275 465.514 110.467 464.931 110.85C464.348 111.233 463.914 111.8 463.631 112.55C463.348 113.3 463.206 114.233 463.206 115.35C463.206 116.417 463.348 117.325 463.631 118.075C463.914 118.825 464.339 119.392 464.906 119.775C465.473 120.158 466.181 120.35 467.031 120.35C467.764 120.35 468.406 120.275 468.956 120.125C469.523 119.975 470.039 119.792 470.506 119.575V121.525C470.056 121.758 469.556 121.933 469.006 122.05C468.473 122.183 467.823 122.25 467.056 122.25ZM482.943 110.45H478.568V122H476.393V110.45H472.068V108.6H482.943V110.45ZM491.758 114.1C492.924 114.1 493.891 114.242 494.658 114.525C495.424 114.808 495.999 115.233 496.383 115.8C496.783 116.35 496.983 117.05 496.983 117.9C496.983 118.733 496.791 119.458 496.408 120.075C496.041 120.692 495.466 121.167 494.683 121.5C493.899 121.833 492.891 122 491.658 122H485.583V108.6H487.783V114.1H491.758ZM494.783 118.025C494.783 117.208 494.491 116.658 493.908 116.375C493.341 116.075 492.541 115.925 491.508 115.925H487.783V120.225H491.558C492.491 120.225 493.258 120.058 493.858 119.725C494.474 119.392 494.783 118.825 494.783 118.025ZM500.962 119.314C501.548 119.233 502.004 119.331 502.33 119.607C502.671 119.884 502.834 120.267 502.818 120.755C502.802 120.999 502.753 121.194 502.671 121.341C502.59 121.487 502.476 121.601 502.33 121.683C502.199 121.748 502.037 121.805 501.841 121.854C501.662 121.886 501.451 121.919 501.207 121.951C500.962 122 500.726 121.992 500.499 121.927C500.271 121.845 500.067 121.731 499.888 121.585C499.709 121.438 499.563 121.276 499.449 121.097C499.351 120.918 499.302 120.739 499.302 120.56C499.302 120.364 499.351 120.201 499.449 120.071C499.563 119.925 499.701 119.803 499.864 119.705C500.043 119.591 500.222 119.51 500.401 119.461C500.596 119.396 500.783 119.347 500.962 119.314ZM78.5687 152H76.3187V136.125H70.7437V134.15H84.1187V136.125H78.5687V152ZM85.2651 152V138.6H87.4651V144.1H90.9401C92.1068 144.1 93.0651 144.242 93.8151 144.525C94.5651 144.808 95.1235 145.233 95.4901 145.8C95.8568 146.35 96.0401 147.05 96.0401 147.9C96.0401 148.733 95.8568 149.458 95.4901 150.075C95.1401 150.692 94.5818 151.167 93.8151 151.5C93.0651 151.833 92.0735 152 90.8401 152H85.2651ZM90.6401 150.225C91.5901 150.225 92.3651 150.067 92.9651 149.75C93.5651 149.417 93.8651 148.842 93.8651 148.025C93.8651 147.208 93.5901 146.658 93.0401 146.375C92.4901 146.075 91.6985 145.925 90.6651 145.925H87.4651V150.225H90.6401ZM98.2651 152V138.6H100.465V152H98.2651ZM116.256 138.35C117.273 138.35 118.156 138.492 118.906 138.775C119.656 139.042 120.239 139.442 120.656 139.975C121.073 140.492 121.281 141.125 121.281 141.875C121.281 142.692 121.056 143.342 120.606 143.825C120.156 144.292 119.539 144.633 118.756 144.85V144.95C119.289 145.1 119.781 145.308 120.231 145.575C120.681 145.842 121.039 146.192 121.306 146.625C121.589 147.058 121.731 147.617 121.731 148.3C121.731 149.033 121.523 149.7 121.106 150.3C120.706 150.9 120.081 151.375 119.231 151.725C118.398 152.075 117.323 152.25 116.006 152.25C115.373 152.25 114.764 152.217 114.181 152.15C113.614 152.083 113.098 151.983 112.631 151.85C112.181 151.717 111.781 151.558 111.431 151.375V149.4C111.998 149.667 112.664 149.908 113.431 150.125C114.214 150.342 115.064 150.45 115.981 150.45C116.648 150.45 117.248 150.375 117.781 150.225C118.331 150.075 118.764 149.842 119.081 149.525C119.398 149.192 119.556 148.742 119.556 148.175C119.556 147.658 119.414 147.242 119.131 146.925C118.848 146.592 118.423 146.342 117.856 146.175C117.306 146.008 116.598 145.925 115.731 145.925H113.931V144.125H115.381C116.531 144.125 117.448 143.975 118.131 143.675C118.831 143.358 119.181 142.825 119.181 142.075C119.181 141.442 118.914 140.967 118.381 140.65C117.864 140.333 117.114 140.175 116.131 140.175C115.398 140.175 114.748 140.25 114.181 140.4C113.631 140.533 113.023 140.742 112.356 141.025L111.581 139.275C112.298 138.958 113.048 138.725 113.831 138.575C114.614 138.425 115.423 138.35 116.256 138.35ZM130.062 138.375C131.695 138.375 132.903 138.733 133.687 139.45C134.47 140.167 134.862 141.308 134.862 142.875V152H133.262L132.837 150.1H132.737C132.353 150.583 131.953 150.992 131.537 151.325C131.137 151.642 130.67 151.875 130.137 152.025C129.62 152.175 128.987 152.25 128.237 152.25C127.437 152.25 126.712 152.108 126.062 151.825C125.428 151.542 124.928 151.108 124.562 150.525C124.195 149.925 124.012 149.175 124.012 148.275C124.012 146.942 124.537 145.917 125.587 145.2C126.637 144.467 128.253 144.067 130.437 144L132.712 143.925V143.125C132.712 142.008 132.47 141.233 131.987 140.8C131.503 140.367 130.82 140.15 129.937 140.15C129.237 140.15 128.57 140.258 127.937 140.475C127.303 140.675 126.712 140.908 126.162 141.175L125.487 139.525C126.07 139.208 126.762 138.942 127.562 138.725C128.362 138.492 129.195 138.375 130.062 138.375ZM130.712 145.525C129.045 145.592 127.887 145.858 127.237 146.325C126.603 146.792 126.287 147.45 126.287 148.3C126.287 149.05 126.512 149.6 126.962 149.95C127.428 150.3 128.02 150.475 128.737 150.475C129.87 150.475 130.812 150.167 131.562 149.55C132.312 148.917 132.687 147.95 132.687 146.65V145.45L130.712 145.525ZM144.375 152.25C143.192 152.25 142.134 152.008 141.2 151.525C140.284 151.042 139.559 150.292 139.025 149.275C138.509 148.258 138.25 146.958 138.25 145.375C138.25 143.725 138.525 142.383 139.075 141.35C139.625 140.317 140.367 139.558 141.3 139.075C142.25 138.592 143.325 138.35 144.525 138.35C145.209 138.35 145.867 138.425 146.5 138.575C147.134 138.708 147.65 138.875 148.05 139.075L147.375 140.9C146.975 140.75 146.509 140.608 145.975 140.475C145.442 140.342 144.942 140.275 144.475 140.275C143.575 140.275 142.834 140.467 142.25 140.85C141.667 141.233 141.234 141.8 140.95 142.55C140.667 143.3 140.525 144.233 140.525 145.35C140.525 146.417 140.667 147.325 140.95 148.075C141.234 148.825 141.659 149.392 142.225 149.775C142.792 150.158 143.5 150.35 144.35 150.35C145.084 150.35 145.725 150.275 146.275 150.125C146.842 149.975 147.359 149.792 147.825 149.575V151.525C147.375 151.758 146.875 151.933 146.325 152.05C145.792 152.183 145.142 152.25 144.375 152.25ZM161.212 152H158.987V140.425H155.037C154.871 142.542 154.662 144.35 154.412 145.85C154.162 147.333 153.846 148.542 153.462 149.475C153.079 150.408 152.621 151.092 152.087 151.525C151.554 151.958 150.929 152.175 150.212 152.175C149.996 152.175 149.779 152.158 149.562 152.125C149.362 152.108 149.196 152.067 149.062 152V150.35C149.162 150.383 149.271 150.408 149.387 150.425C149.504 150.442 149.621 150.45 149.737 150.45C150.104 150.45 150.437 150.3 150.737 150C151.037 149.7 151.304 149.242 151.537 148.625C151.787 148.008 152.012 147.233 152.212 146.3C152.412 145.35 152.587 144.233 152.737 142.95C152.887 141.667 153.021 140.217 153.137 138.6H161.212V152ZM163.365 138.6H165.715L168.615 146.225C168.782 146.675 168.932 147.108 169.065 147.525C169.215 147.942 169.349 148.35 169.465 148.75C169.582 149.133 169.674 149.508 169.74 149.875H169.84C169.94 149.458 170.099 148.917 170.315 148.25C170.532 147.567 170.757 146.883 170.99 146.2L173.715 138.6H176.09L170.315 153.85C169.999 154.683 169.624 155.408 169.19 156.025C168.774 156.658 168.257 157.142 167.64 157.475C167.04 157.825 166.307 158 165.44 158C165.04 158 164.69 157.975 164.39 157.925C164.09 157.892 163.832 157.85 163.615 157.8V156.05C163.799 156.083 164.015 156.117 164.265 156.15C164.532 156.183 164.807 156.2 165.09 156.2C165.607 156.2 166.049 156.1 166.415 155.9C166.799 155.717 167.124 155.442 167.39 155.075C167.657 154.725 167.882 154.308 168.065 153.825L168.765 152.05L163.365 138.6ZM194.284 138.6L188.759 145.1L194.759 152H192.259L186.459 145.2V152H184.409V145.2L178.609 152H176.109L182.109 145.1L176.584 138.6H178.984L184.409 145.1V138.6H186.459V145.1L191.909 138.6H194.284ZM199.034 146.775C199.034 146.925 199.026 147.142 199.009 147.425C199.009 147.692 199.001 147.983 198.984 148.3C198.968 148.6 198.951 148.892 198.934 149.175C198.918 149.442 198.901 149.658 198.884 149.825L206.059 138.6H208.759V152H206.709V144.1C206.709 143.833 206.709 143.483 206.709 143.05C206.726 142.617 206.743 142.192 206.759 141.775C206.776 141.342 206.793 141.017 206.809 140.8L199.684 152H196.959V138.6H199.034V146.775ZM223.799 141.975C223.799 142.808 223.549 143.458 223.049 143.925C222.549 144.392 221.907 144.708 221.124 144.875V144.975C221.957 145.092 222.682 145.392 223.299 145.875C223.916 146.342 224.224 147.075 224.224 148.075C224.224 148.642 224.116 149.167 223.899 149.65C223.699 150.133 223.382 150.55 222.949 150.9C222.516 151.25 221.957 151.525 221.274 151.725C220.591 151.908 219.766 152 218.799 152H213.024V138.6H218.774C219.724 138.6 220.574 138.708 221.324 138.925C222.091 139.125 222.691 139.475 223.124 139.975C223.574 140.458 223.799 141.125 223.799 141.975ZM221.949 148.075C221.949 147.308 221.657 146.758 221.074 146.425C220.491 146.092 219.632 145.925 218.499 145.925H215.224V150.225H218.549C219.649 150.225 220.491 150.067 221.074 149.75C221.657 149.417 221.949 148.858 221.949 148.075ZM221.574 142.25C221.574 141.617 221.341 141.158 220.874 140.875C220.424 140.575 219.682 140.425 218.649 140.425H215.224V144.1H218.249C219.332 144.1 220.157 143.95 220.724 143.65C221.291 143.35 221.574 142.883 221.574 142.25ZM232.503 138.375C234.137 138.375 235.345 138.733 236.128 139.45C236.912 140.167 237.303 141.308 237.303 142.875V152H235.703L235.278 150.1H235.178C234.795 150.583 234.395 150.992 233.978 151.325C233.578 151.642 233.112 151.875 232.578 152.025C232.062 152.175 231.428 152.25 230.678 152.25C229.878 152.25 229.153 152.108 228.503 151.825C227.87 151.542 227.37 151.108 227.003 150.525C226.637 149.925 226.453 149.175 226.453 148.275C226.453 146.942 226.978 145.917 228.028 145.2C229.078 144.467 230.695 144.067 232.878 144L235.153 143.925V143.125C235.153 142.008 234.912 141.233 234.428 140.8C233.945 140.367 233.262 140.15 232.378 140.15C231.678 140.15 231.012 140.258 230.378 140.475C229.745 140.675 229.153 140.908 228.603 141.175L227.928 139.525C228.512 139.208 229.203 138.942 230.003 138.725C230.803 138.492 231.637 138.375 232.503 138.375ZM233.153 145.525C231.487 145.592 230.328 145.858 229.678 146.325C229.045 146.792 228.728 147.45 228.728 148.3C228.728 149.05 228.953 149.6 229.403 149.95C229.87 150.3 230.462 150.475 231.178 150.475C232.312 150.475 233.253 150.167 234.003 149.55C234.753 148.917 235.128 147.95 235.128 146.65V145.45L233.153 145.525ZM246.617 138.35C247.767 138.35 248.75 138.6 249.567 139.1C250.4 139.6 251.034 140.308 251.467 141.225C251.917 142.125 252.142 143.183 252.142 144.4V145.725H242.967C243 147.242 243.384 148.4 244.117 149.2C244.867 149.983 245.909 150.375 247.242 150.375C248.092 150.375 248.842 150.3 249.492 150.15C250.159 149.983 250.842 149.75 251.542 149.45V151.375C250.859 151.675 250.184 151.892 249.517 152.025C248.85 152.175 248.059 152.25 247.142 152.25C245.875 152.25 244.75 151.992 243.767 151.475C242.8 150.958 242.042 150.192 241.492 149.175C240.959 148.142 240.692 146.883 240.692 145.4C240.692 143.933 240.934 142.675 241.417 141.625C241.917 140.575 242.609 139.767 243.492 139.2C244.392 138.633 245.434 138.35 246.617 138.35ZM246.592 140.15C245.542 140.15 244.709 140.492 244.092 141.175C243.492 141.842 243.134 142.775 243.017 143.975H249.842C249.842 143.208 249.725 142.542 249.492 141.975C249.259 141.408 248.9 140.967 248.417 140.65C247.95 140.317 247.342 140.15 246.592 140.15ZM273.728 138.6V152H255.553V138.6H257.753V150.15H263.528V138.6H265.728V150.15H271.528V138.6H273.728ZM284.189 144.1C285.356 144.1 286.322 144.242 287.089 144.525C287.856 144.808 288.431 145.233 288.814 145.8C289.214 146.35 289.414 147.05 289.414 147.9C289.414 148.733 289.222 149.458 288.839 150.075C288.472 150.692 287.897 151.167 287.114 151.5C286.331 151.833 285.322 152 284.089 152H278.014V138.6H280.214V144.1H284.189ZM287.214 148.025C287.214 147.208 286.922 146.658 286.339 146.375C285.772 146.075 284.972 145.925 283.939 145.925H280.214V150.225H283.989C284.922 150.225 285.689 150.058 286.289 149.725C286.906 149.392 287.214 148.825 287.214 148.025ZM311.641 141.975C311.641 142.808 311.391 143.458 310.891 143.925C310.391 144.392 309.749 144.708 308.966 144.875V144.975C309.799 145.092 310.524 145.392 311.141 145.875C311.757 146.342 312.066 147.075 312.066 148.075C312.066 148.642 311.957 149.167 311.741 149.65C311.541 150.133 311.224 150.55 310.791 150.9C310.357 151.25 309.799 151.525 309.116 151.725C308.432 151.908 307.607 152 306.641 152H300.866V138.6H306.616C307.566 138.6 308.416 138.708 309.166 138.925C309.932 139.125 310.532 139.475 310.966 139.975C311.416 140.458 311.641 141.125 311.641 141.975ZM309.791 148.075C309.791 147.308 309.499 146.758 308.916 146.425C308.332 146.092 307.474 145.925 306.341 145.925H303.066V150.225H306.391C307.491 150.225 308.332 150.067 308.916 149.75C309.499 149.417 309.791 148.858 309.791 148.075ZM309.416 142.25C309.416 141.617 309.182 141.158 308.716 140.875C308.266 140.575 307.524 140.425 306.491 140.425H303.066V144.1H306.091C307.174 144.1 307.999 143.95 308.566 143.65C309.132 143.35 309.416 142.883 309.416 142.25ZM320.645 152.25C319.462 152.25 318.403 152.008 317.47 151.525C316.553 151.042 315.828 150.292 315.295 149.275C314.778 148.258 314.52 146.958 314.52 145.375C314.52 143.725 314.795 142.383 315.345 141.35C315.895 140.317 316.637 139.558 317.57 139.075C318.52 138.592 319.595 138.35 320.795 138.35C321.478 138.35 322.137 138.425 322.77 138.575C323.403 138.708 323.92 138.875 324.32 139.075L323.645 140.9C323.245 140.75 322.778 140.608 322.245 140.475C321.712 140.342 321.212 140.275 320.745 140.275C319.845 140.275 319.103 140.467 318.52 140.85C317.937 141.233 317.503 141.8 317.22 142.55C316.937 143.3 316.795 144.233 316.795 145.35C316.795 146.417 316.937 147.325 317.22 148.075C317.503 148.825 317.928 149.392 318.495 149.775C319.062 150.158 319.77 150.35 320.62 150.35C321.353 150.35 321.995 150.275 322.545 150.125C323.112 149.975 323.628 149.792 324.095 149.575V151.525C323.645 151.758 323.145 151.933 322.595 152.05C322.062 152.183 321.412 152.25 320.645 152.25ZM332.457 138.35C333.607 138.35 334.59 138.6 335.407 139.1C336.24 139.6 336.873 140.308 337.307 141.225C337.757 142.125 337.982 143.183 337.982 144.4V145.725H328.807C328.84 147.242 329.223 148.4 329.957 149.2C330.707 149.983 331.748 150.375 333.082 150.375C333.932 150.375 334.682 150.3 335.332 150.15C335.998 149.983 336.682 149.75 337.382 149.45V151.375C336.698 151.675 336.023 151.892 335.357 152.025C334.69 152.175 333.898 152.25 332.982 152.25C331.715 152.25 330.59 151.992 329.607 151.475C328.64 150.958 327.882 150.192 327.332 149.175C326.798 148.142 326.532 146.883 326.532 145.4C326.532 143.933 326.773 142.675 327.257 141.625C327.757 140.575 328.448 139.767 329.332 139.2C330.232 138.633 331.273 138.35 332.457 138.35ZM332.432 140.15C331.382 140.15 330.548 140.492 329.932 141.175C329.332 141.842 328.973 142.775 328.857 143.975H335.682C335.682 143.208 335.565 142.542 335.332 141.975C335.098 141.408 334.74 140.967 334.257 140.65C333.79 140.317 333.182 140.15 332.432 140.15ZM349.568 138.6V140.45H343.593V152H341.393V138.6H349.568ZM363.614 145.275C363.614 146.392 363.464 147.383 363.164 148.25C362.881 149.1 362.464 149.825 361.914 150.425C361.381 151.025 360.723 151.483 359.939 151.8C359.173 152.1 358.314 152.25 357.364 152.25C356.481 152.25 355.664 152.1 354.914 151.8C354.164 151.483 353.514 151.025 352.964 150.425C352.414 149.825 351.981 149.1 351.664 148.25C351.364 147.383 351.214 146.392 351.214 145.275C351.214 143.792 351.464 142.542 351.964 141.525C352.464 140.492 353.181 139.708 354.114 139.175C355.048 138.625 356.156 138.35 357.439 138.35C358.656 138.35 359.723 138.625 360.639 139.175C361.573 139.708 362.298 140.492 362.814 141.525C363.348 142.542 363.614 143.792 363.614 145.275ZM353.489 145.275C353.489 146.325 353.623 147.242 353.889 148.025C354.173 148.792 354.606 149.383 355.189 149.8C355.773 150.217 356.514 150.425 357.414 150.425C358.314 150.425 359.056 150.217 359.639 149.8C360.223 149.383 360.648 148.792 360.914 148.025C361.198 147.242 361.339 146.325 361.339 145.275C361.339 144.208 361.198 143.3 360.914 142.55C360.631 141.8 360.198 141.225 359.614 140.825C359.048 140.408 358.306 140.2 357.389 140.2C356.023 140.2 355.031 140.65 354.414 141.55C353.798 142.45 353.489 143.692 353.489 145.275ZM380.484 152.25C379.301 152.25 378.242 152.008 377.309 151.525C376.392 151.042 375.667 150.292 375.134 149.275C374.617 148.258 374.359 146.958 374.359 145.375C374.359 143.725 374.634 142.383 375.184 141.35C375.734 140.317 376.476 139.558 377.409 139.075C378.359 138.592 379.434 138.35 380.634 138.35C381.317 138.35 381.976 138.425 382.609 138.575C383.242 138.708 383.759 138.875 384.159 139.075L383.484 140.9C383.084 140.75 382.617 140.608 382.084 140.475C381.551 140.342 381.051 140.275 380.584 140.275C379.684 140.275 378.942 140.467 378.359 140.85C377.776 141.233 377.342 141.8 377.059 142.55C376.776 143.3 376.634 144.233 376.634 145.35C376.634 146.417 376.776 147.325 377.059 148.075C377.342 148.825 377.767 149.392 378.334 149.775C378.901 150.158 379.609 150.35 380.459 150.35C381.192 150.35 381.834 150.275 382.384 150.125C382.951 149.975 383.467 149.792 383.934 149.575V151.525C383.484 151.758 382.984 151.933 382.434 152.05C381.901 152.183 381.251 152.25 380.484 152.25ZM392.196 138.375C393.829 138.375 395.037 138.733 395.821 139.45C396.604 140.167 396.996 141.308 396.996 142.875V152H395.396L394.971 150.1H394.871C394.487 150.583 394.087 150.992 393.671 151.325C393.271 151.642 392.804 151.875 392.271 152.025C391.754 152.175 391.121 152.25 390.371 152.25C389.571 152.25 388.846 152.108 388.196 151.825C387.562 151.542 387.062 151.108 386.696 150.525C386.329 149.925 386.146 149.175 386.146 148.275C386.146 146.942 386.671 145.917 387.721 145.2C388.771 144.467 390.387 144.067 392.571 144L394.846 143.925V143.125C394.846 142.008 394.604 141.233 394.121 140.8C393.637 140.367 392.954 140.15 392.071 140.15C391.371 140.15 390.704 140.258 390.071 140.475C389.437 140.675 388.846 140.908 388.296 141.175L387.621 139.525C388.204 139.208 388.896 138.942 389.696 138.725C390.496 138.492 391.329 138.375 392.196 138.375ZM392.846 145.525C391.179 145.592 390.021 145.858 389.371 146.325C388.737 146.792 388.421 147.45 388.421 148.3C388.421 149.05 388.646 149.6 389.096 149.95C389.562 150.3 390.154 150.475 390.871 150.475C392.004 150.475 392.946 150.167 393.696 149.55C394.446 148.917 394.821 147.95 394.821 146.65V145.45L392.846 145.525ZM415.509 138.6V152H413.534V143.45C413.534 143.1 413.543 142.733 413.559 142.35C413.593 141.967 413.626 141.592 413.659 141.225H413.584L409.209 152H407.359L403.109 141.225H403.034C403.068 141.592 403.084 141.967 403.084 142.35C403.101 142.733 403.109 143.125 403.109 143.525V152H401.134V138.6H404.059L408.284 149.375L412.584 138.6H415.509ZM431.437 145.275C431.437 146.392 431.287 147.383 430.987 148.25C430.703 149.1 430.287 149.825 429.737 150.425C429.203 151.025 428.545 151.483 427.762 151.8C426.995 152.1 426.137 152.25 425.187 152.25C424.303 152.25 423.487 152.1 422.737 151.8C421.987 151.483 421.337 151.025 420.787 150.425C420.237 149.825 419.803 149.1 419.487 148.25C419.187 147.383 419.037 146.392 419.037 145.275C419.037 143.792 419.287 142.542 419.787 141.525C420.287 140.492 421.003 139.708 421.937 139.175C422.87 138.625 423.978 138.35 425.262 138.35C426.478 138.35 427.545 138.625 428.462 139.175C429.395 139.708 430.12 140.492 430.637 141.525C431.17 142.542 431.437 143.792 431.437 145.275ZM421.312 145.275C421.312 146.325 421.445 147.242 421.712 148.025C421.995 148.792 422.428 149.383 423.012 149.8C423.595 150.217 424.337 150.425 425.237 150.425C426.137 150.425 426.878 150.217 427.462 149.8C428.045 149.383 428.47 148.792 428.737 148.025C429.02 147.242 429.162 146.325 429.162 145.275C429.162 144.208 429.02 143.3 428.737 142.55C428.453 141.8 428.02 141.225 427.437 140.825C426.87 140.408 426.128 140.2 425.212 140.2C423.845 140.2 422.853 140.65 422.237 141.55C421.62 142.45 421.312 143.692 421.312 145.275ZM443.098 138.6V140.45H437.123V152H434.923V138.6H443.098ZM457.145 145.275C457.145 146.392 456.995 147.383 456.695 148.25C456.411 149.1 455.995 149.825 455.445 150.425C454.911 151.025 454.253 151.483 453.47 151.8C452.703 152.1 451.845 152.25 450.895 152.25C450.011 152.25 449.195 152.1 448.445 151.8C447.695 151.483 447.045 151.025 446.495 150.425C445.945 149.825 445.511 149.1 445.195 148.25C444.895 147.383 444.745 146.392 444.745 145.275C444.745 143.792 444.995 142.542 445.495 141.525C445.995 140.492 446.711 139.708 447.645 139.175C448.578 138.625 449.686 138.35 450.97 138.35C452.186 138.35 453.253 138.625 454.17 139.175C455.103 139.708 455.828 140.492 456.345 141.525C456.878 142.542 457.145 143.792 457.145 145.275ZM447.02 145.275C447.02 146.325 447.153 147.242 447.42 148.025C447.703 148.792 448.136 149.383 448.72 149.8C449.303 150.217 450.045 150.425 450.945 150.425C451.845 150.425 452.586 150.217 453.17 149.8C453.753 149.383 454.178 148.792 454.445 148.025C454.728 147.242 454.87 146.325 454.87 145.275C454.87 144.208 454.728 143.3 454.445 142.55C454.161 141.8 453.728 141.225 453.145 140.825C452.578 140.408 451.836 140.2 450.92 140.2C449.553 140.2 448.561 140.65 447.945 141.55C447.328 142.45 447.02 143.692 447.02 145.275ZM214.859 182.25C213.676 182.25 212.617 182.008 211.684 181.525C210.767 181.042 210.042 180.292 209.509 179.275C208.992 178.258 208.734 176.958 208.734 175.375C208.734 173.725 209.009 172.383 209.559 171.35C210.109 170.317 210.851 169.558 211.784 169.075C212.734 168.592 213.809 168.35 215.009 168.35C215.692 168.35 216.351 168.425 216.984 168.575C217.617 168.708 218.134 168.875 218.534 169.075L217.859 170.9C217.459 170.75 216.992 170.608 216.459 170.475C215.926 170.342 215.426 170.275 214.959 170.275C214.059 170.275 213.317 170.467 212.734 170.85C212.151 171.233 211.717 171.8 211.434 172.55C211.151 173.3 211.009 174.233 211.009 175.35C211.009 176.417 211.151 177.325 211.434 178.075C211.717 178.825 212.142 179.392 212.709 179.775C213.276 180.158 213.984 180.35 214.834 180.35C215.567 180.35 216.209 180.275 216.759 180.125C217.326 179.975 217.842 179.792 218.309 179.575V181.525C217.859 181.758 217.359 181.933 216.809 182.05C216.276 182.183 215.626 182.25 214.859 182.25ZM232.271 171.975C232.271 172.808 232.021 173.458 231.521 173.925C231.021 174.392 230.379 174.708 229.596 174.875V174.975C230.429 175.092 231.154 175.392 231.771 175.875C232.387 176.342 232.696 177.075 232.696 178.075C232.696 178.642 232.587 179.167 232.371 179.65C232.171 180.133 231.854 180.55 231.421 180.9C230.987 181.25 230.429 181.525 229.746 181.725C229.062 181.908 228.237 182 227.271 182H221.496V168.6H227.246C228.196 168.6 229.046 168.708 229.796 168.925C230.562 169.125 231.162 169.475 231.596 169.975C232.046 170.458 232.271 171.125 232.271 171.975ZM230.421 178.075C230.421 177.308 230.129 176.758 229.546 176.425C228.962 176.092 228.104 175.925 226.971 175.925H223.696V180.225H227.021C228.121 180.225 228.962 180.067 229.546 179.75C230.129 179.417 230.421 178.858 230.421 178.075ZM230.046 172.25C230.046 171.617 229.812 171.158 229.346 170.875C228.896 170.575 228.154 170.425 227.121 170.425H223.696V174.1H226.721C227.804 174.1 228.629 173.95 229.196 173.65C229.762 173.35 230.046 172.883 230.046 172.25ZM241.075 168.35C242.225 168.35 243.208 168.6 244.025 169.1C244.858 169.6 245.492 170.308 245.925 171.225C246.375 172.125 246.6 173.183 246.6 174.4V175.725H237.425C237.458 177.242 237.842 178.4 238.575 179.2C239.325 179.983 240.367 180.375 241.7 180.375C242.55 180.375 243.3 180.3 243.95 180.15C244.617 179.983 245.3 179.75 246 179.45V181.375C245.317 181.675 244.642 181.892 243.975 182.025C243.308 182.175 242.517 182.25 241.6 182.25C240.333 182.25 239.208 181.992 238.225 181.475C237.258 180.958 236.5 180.192 235.95 179.175C235.417 178.142 235.15 176.883 235.15 175.4C235.15 173.933 235.392 172.675 235.875 171.625C236.375 170.575 237.067 169.767 237.95 169.2C238.85 168.633 239.892 168.35 241.075 168.35ZM241.05 170.15C240 170.15 239.167 170.492 238.55 171.175C237.95 171.842 237.592 172.775 237.475 173.975H244.3C244.3 173.208 244.183 172.542 243.95 171.975C243.717 171.408 243.358 170.967 242.875 170.65C242.408 170.317 241.8 170.15 241.05 170.15ZM259.261 170.45H254.886V182H252.711V170.45H248.386V168.6H259.261V170.45ZM271.344 182H269.119V170.425H265.169C265.002 172.542 264.794 174.35 264.544 175.85C264.294 177.333 263.977 178.542 263.594 179.475C263.211 180.408 262.752 181.092 262.219 181.525C261.686 181.958 261.061 182.175 260.344 182.175C260.127 182.175 259.911 182.158 259.694 182.125C259.494 182.108 259.327 182.067 259.194 182V180.35C259.294 180.383 259.402 180.408 259.519 180.425C259.636 180.442 259.752 180.45 259.869 180.45C260.236 180.45 260.569 180.3 260.869 180C261.169 179.7 261.436 179.242 261.669 178.625C261.919 178.008 262.144 177.233 262.344 176.3C262.544 175.35 262.719 174.233 262.869 172.95C263.019 171.667 263.152 170.217 263.269 168.6H271.344V182ZM287.247 175.275C287.247 176.392 287.097 177.383 286.797 178.25C286.514 179.1 286.097 179.825 285.547 180.425C285.014 181.025 284.356 181.483 283.572 181.8C282.806 182.1 281.947 182.25 280.997 182.25C280.114 182.25 279.297 182.1 278.547 181.8C277.797 181.483 277.147 181.025 276.597 180.425C276.047 179.825 275.614 179.1 275.297 178.25C274.997 177.383 274.847 176.392 274.847 175.275C274.847 173.792 275.097 172.542 275.597 171.525C276.097 170.492 276.814 169.708 277.747 169.175C278.681 168.625 279.789 168.35 281.072 168.35C282.289 168.35 283.356 168.625 284.272 169.175C285.206 169.708 285.931 170.492 286.447 171.525C286.981 172.542 287.247 173.792 287.247 175.275ZM277.122 175.275C277.122 176.325 277.256 177.242 277.522 178.025C277.806 178.792 278.239 179.383 278.822 179.8C279.406 180.217 280.147 180.425 281.047 180.425C281.947 180.425 282.689 180.217 283.272 179.8C283.856 179.383 284.281 178.792 284.547 178.025C284.831 177.242 284.972 176.325 284.972 175.275C284.972 174.208 284.831 173.3 284.547 172.55C284.264 171.8 283.831 171.225 283.247 170.825C282.681 170.408 281.939 170.2 281.022 170.2C279.656 170.2 278.664 170.65 278.047 171.55C277.431 172.45 277.122 173.692 277.122 175.275ZM298.909 168.6V170.45H292.934V182H290.734V168.6H298.909ZM312.955 175.275C312.955 176.392 312.805 177.383 312.505 178.25C312.222 179.1 311.805 179.825 311.255 180.425C310.722 181.025 310.064 181.483 309.28 181.8C308.514 182.1 307.655 182.25 306.705 182.25C305.822 182.25 305.005 182.1 304.255 181.8C303.505 181.483 302.855 181.025 302.305 180.425C301.755 179.825 301.322 179.1 301.005 178.25C300.705 177.383 300.555 176.392 300.555 175.275C300.555 173.792 300.805 172.542 301.305 171.525C301.805 170.492 302.522 169.708 303.455 169.175C304.389 168.625 305.497 168.35 306.78 168.35C307.997 168.35 309.064 168.625 309.98 169.175C310.914 169.708 311.639 170.492 312.155 171.525C312.689 172.542 312.955 173.792 312.955 175.275ZM302.83 175.275C302.83 176.325 302.964 177.242 303.23 178.025C303.514 178.792 303.947 179.383 304.53 179.8C305.114 180.217 305.855 180.425 306.755 180.425C307.655 180.425 308.397 180.217 308.98 179.8C309.564 179.383 309.989 178.792 310.255 178.025C310.539 177.242 310.68 176.325 310.68 175.275C310.68 174.208 310.539 173.3 310.255 172.55C309.972 171.8 309.539 171.225 308.955 170.825C308.389 170.408 307.647 170.2 306.73 170.2C305.364 170.2 304.372 170.65 303.755 171.55C303.139 172.45 302.83 173.692 302.83 175.275ZM316.148 164.397C316.457 164.479 316.75 164.544 317.027 164.593C317.304 164.625 317.548 164.658 317.759 164.69C318.003 164.723 318.231 164.747 318.443 164.764C318.671 164.78 318.939 164.796 319.249 164.812C319.525 164.829 319.859 164.837 320.25 164.837C320.64 164.837 321.104 164.837 321.641 164.837C321.169 165.96 320.787 166.912 320.494 167.693C320.201 168.458 319.973 169.093 319.81 169.598C319.631 170.184 319.501 170.664 319.419 171.038C319.354 171.412 319.273 171.868 319.175 172.405C319.094 172.877 318.98 173.455 318.833 174.139C318.687 174.822 318.524 175.636 318.345 176.58L316.197 176.482C316.327 175.62 316.417 174.887 316.465 174.285C316.514 173.667 316.555 173.154 316.587 172.747C316.62 172.275 316.636 171.884 316.636 171.575C316.636 171.25 316.612 170.761 316.563 170.11C316.53 169.573 316.482 168.849 316.417 167.938C316.351 167.01 316.262 165.83 316.148 164.397ZM318.833 178.436C318.947 178.615 319.013 178.818 319.029 179.046C319.061 179.257 319.045 179.477 318.98 179.705C318.931 179.917 318.825 180.12 318.663 180.315C318.516 180.511 318.313 180.665 318.052 180.779C317.531 181.023 317.068 181.089 316.661 180.975C316.254 180.844 315.953 180.633 315.757 180.34C315.643 180.177 315.578 179.998 315.562 179.803C315.562 179.591 315.603 179.388 315.684 179.192C315.765 178.981 315.896 178.785 316.075 178.606C316.254 178.427 316.482 178.281 316.758 178.167C317.295 177.939 317.735 177.858 318.077 177.923C318.435 177.988 318.687 178.159 318.833 178.436Z" fill="black"/>
</svg>
