<svg width="691" height="127" viewBox="0 0 691 127" fill="none" xmlns="http://www.w3.org/2000/svg">
<g filter="url(#filter0_i_4_3)">
<path d="M0 35C0 15.67 15.67 0 35 0H656C675.33 0 691 15.67 691 35V92C691 111.33 675.33 127 656 127H35C15.67 127 0 111.33 0 92V35Z" fill="#D4B9DB"/>
</g>
<path d="M211.386 50.62C209.714 50.62 208.204 50.9133 206.854 51.5C205.505 52.0573 204.361 52.8933 203.422 54.008C202.484 55.0933 201.765 56.428 201.266 58.012C200.768 59.5667 200.518 61.3267 200.518 63.292C200.518 65.8733 200.914 68.1173 201.706 70.024C202.528 71.9307 203.73 73.3973 205.314 74.424C206.928 75.4507 208.937 75.964 211.342 75.964C212.721 75.964 214.026 75.8467 215.258 75.612C216.49 75.3773 217.693 75.084 218.866 74.732V78.164C217.693 78.604 216.476 78.9267 215.214 79.132C213.982 79.3373 212.501 79.44 210.77 79.44C207.573 79.44 204.904 78.78 202.762 77.46C200.621 76.14 199.008 74.2627 197.922 71.828C196.866 69.3933 196.338 66.5333 196.338 63.248C196.338 60.872 196.661 58.7013 197.306 56.736C197.981 54.7707 198.949 53.0693 200.21 51.632C201.501 50.1947 203.085 49.0947 204.962 48.332C206.84 47.54 208.996 47.144 211.43 47.144C213.044 47.144 214.598 47.3053 216.094 47.628C217.59 47.9507 218.925 48.4053 220.098 48.992L218.514 52.336C217.546 51.896 216.461 51.5 215.258 51.148C214.085 50.796 212.794 50.62 211.386 50.62ZM256.801 55.416V75.744H260.233V87.184H256.493V79H240.081V87.184H236.385V75.744H238.277C239.626 73.8667 240.741 71.828 241.621 69.628C242.53 67.3987 243.205 65.0813 243.645 62.676C244.114 60.2413 244.363 57.8213 244.393 55.416H256.801ZM247.825 58.452C247.707 60.4467 247.399 62.5147 246.901 64.656C246.402 66.768 245.757 68.792 244.965 70.728C244.202 72.664 243.307 74.336 242.281 75.744H253.061V58.452H247.825ZM268.727 55.416V65.228H281.531V55.416H285.403V79H281.531V68.484H268.727V79H264.855V55.416H268.727ZM301.979 54.976C304.003 54.976 305.734 55.416 307.171 56.296C308.638 57.176 309.752 58.4227 310.515 60.036C311.307 61.62 311.703 63.4827 311.703 65.624V67.956H295.555C295.614 70.6253 296.288 72.664 297.579 74.072C298.899 75.4507 300.732 76.14 303.079 76.14C304.575 76.14 305.895 76.008 307.039 75.744C308.212 75.4507 309.415 75.04 310.647 74.512V77.9C309.444 78.428 308.256 78.8093 307.083 79.044C305.91 79.308 304.516 79.44 302.903 79.44C300.674 79.44 298.694 78.9853 296.963 78.076C295.262 77.1667 293.927 75.8173 292.959 74.028C292.02 72.2093 291.551 69.9947 291.551 67.384C291.551 64.8027 291.976 62.588 292.827 60.74C293.707 58.892 294.924 57.4693 296.479 56.472C298.063 55.4747 299.896 54.976 301.979 54.976ZM301.935 58.144C300.087 58.144 298.62 58.7453 297.535 59.948C296.479 61.1213 295.848 62.764 295.643 64.876H307.655C307.655 63.5267 307.45 62.3533 307.039 61.356C306.628 60.3587 305.998 59.5813 305.147 59.024C304.326 58.4373 303.255 58.144 301.935 58.144ZM343.007 55.416V79H339.531V63.952C339.531 63.336 339.545 62.6907 339.575 62.016C339.633 61.3413 339.692 60.6813 339.751 60.036H339.619L331.919 79H328.663L321.183 60.036H321.051C321.109 60.6813 321.139 61.3413 321.139 62.016C321.168 62.6907 321.183 63.38 321.183 64.084V79H317.707V55.416H322.855L330.291 74.38L337.859 55.416H343.007ZM389.929 55.416V79H386.453V63.952C386.453 63.336 386.467 62.6907 386.497 62.016C386.555 61.3413 386.614 60.6813 386.673 60.036H386.541L378.841 79H375.585L368.105 60.036H367.973C368.031 60.6813 368.061 61.3413 368.061 62.016C368.09 62.6907 368.105 63.38 368.105 64.084V79H364.629V55.416H369.777L377.213 74.38L384.781 55.416H389.929ZM406.389 55.02C409.263 55.02 411.39 55.6507 412.769 56.912C414.147 58.1733 414.837 60.1827 414.837 62.94V79H412.021L411.273 75.656H411.097C410.422 76.5067 409.718 77.2253 408.985 77.812C408.281 78.3693 407.459 78.78 406.521 79.044C405.611 79.308 404.497 79.44 403.177 79.44C401.769 79.44 400.493 79.1907 399.349 78.692C398.234 78.1933 397.354 77.4307 396.709 76.404C396.063 75.348 395.741 74.028 395.741 72.444C395.741 70.0973 396.665 68.2933 398.513 67.032C400.361 65.7413 403.206 65.0373 407.049 64.92L411.053 64.788V63.38C411.053 61.4147 410.627 60.0507 409.777 59.288C408.926 58.5253 407.723 58.144 406.169 58.144C404.937 58.144 403.763 58.3347 402.649 58.716C401.534 59.068 400.493 59.4787 399.525 59.948L398.337 57.044C399.363 56.4867 400.581 56.0173 401.989 55.636C403.397 55.2253 404.863 55.02 406.389 55.02ZM407.533 67.604C404.599 67.7213 402.561 68.1907 401.417 69.012C400.302 69.8333 399.745 70.992 399.745 72.488C399.745 73.808 400.141 74.776 400.933 75.392C401.754 76.008 402.795 76.316 404.057 76.316C406.051 76.316 407.709 75.7733 409.029 74.688C410.349 73.5733 411.009 71.872 411.009 69.584V67.472L407.533 67.604ZM447.421 55.416V79H443.945V63.952C443.945 63.336 443.96 62.6907 443.989 62.016C444.048 61.3413 444.106 60.6813 444.165 60.036H444.033L436.333 79H433.077L425.597 60.036H425.465C425.524 60.6813 425.553 61.3413 425.553 62.016C425.582 62.6907 425.597 63.38 425.597 64.084V79H422.121V55.416H427.269L434.705 74.38L442.273 55.416H447.421ZM454.949 79V55.416H458.821V65.096H464.937C466.99 65.096 468.677 65.3453 469.997 65.844C471.317 66.3427 472.3 67.0907 472.945 68.088C473.59 69.056 473.913 70.288 473.913 71.784C473.913 73.2507 473.59 74.5267 472.945 75.612C472.329 76.6973 471.346 77.5333 469.997 78.12C468.677 78.7067 466.932 79 464.761 79H454.949ZM464.409 75.876C466.081 75.876 467.445 75.5973 468.501 75.04C469.557 74.4533 470.085 73.4413 470.085 72.004C470.085 70.5667 469.601 69.5987 468.633 69.1C467.665 68.572 466.272 68.308 464.453 68.308H458.821V75.876H464.409ZM477.829 79V55.416H481.701V79H477.829ZM488.678 48.0195C489.222 48.1628 489.738 48.2773 490.225 48.3633C490.712 48.4206 491.141 48.4779 491.514 48.5352C491.943 48.5924 492.344 48.6354 492.717 48.6641C493.118 48.6927 493.59 48.7214 494.135 48.75C494.622 48.7786 495.209 48.793 495.896 48.793C496.584 48.793 497.4 48.793 498.346 48.793C497.515 50.7695 496.842 52.4453 496.326 53.8203C495.811 55.1667 495.41 56.2839 495.123 57.1719C494.808 58.2031 494.579 59.0482 494.436 59.707C494.321 60.3659 494.178 61.168 494.006 62.1133C493.863 62.944 493.662 63.9609 493.404 65.1641C493.146 66.3672 492.86 67.7995 492.545 69.4609L488.764 69.2891C488.993 67.7708 489.15 66.4818 489.236 65.4219C489.322 64.3333 489.394 63.431 489.451 62.7148C489.508 61.8841 489.537 61.1966 489.537 60.6523C489.537 60.0794 489.494 59.2201 489.408 58.0742C489.351 57.1289 489.265 55.8542 489.15 54.25C489.036 52.6172 488.878 50.5404 488.678 48.0195ZM493.404 72.7266C493.605 73.0417 493.719 73.3997 493.748 73.8008C493.805 74.1732 493.777 74.5599 493.662 74.9609C493.576 75.3333 493.39 75.6914 493.104 76.0352C492.846 76.3789 492.488 76.651 492.029 76.8516C491.113 77.2812 490.296 77.3958 489.58 77.1953C488.864 76.9661 488.334 76.5938 487.99 76.0781C487.79 75.7917 487.675 75.4766 487.646 75.1328C487.646 74.7604 487.718 74.4023 487.861 74.0586C488.005 73.6862 488.234 73.3424 488.549 73.0273C488.864 72.7122 489.265 72.4544 489.752 72.2539C490.697 71.8529 491.471 71.7096 492.072 71.8242C492.702 71.9388 493.146 72.2396 493.404 72.7266Z" fill="black"/>
<defs>
<filter id="filter0_i_4_3" x="0" y="0" width="691" height="131" filterUnits="userSpaceOnUse" color-interpolation-filters="sRGB">
<feFlood flood-opacity="0" result="BackgroundImageFix"/>
<feBlend mode="normal" in="SourceGraphic" in2="BackgroundImageFix" result="shape"/>
<feColorMatrix in="SourceAlpha" type="matrix" values="0 0 0 0 0 0 0 0 0 0 0 0 0 0 0 0 0 0 127 0" result="hardAlpha"/>
<feOffset dy="4"/>
<feGaussianBlur stdDeviation="2"/>
<feComposite in2="hardAlpha" operator="arithmetic" k2="-1" k3="1"/>
<feColorMatrix type="matrix" values="0 0 0 0 0 0 0 0 0 0 0 0 0 0 0 0 0 0 0.25 0"/>
<feBlend mode="normal" in2="shape" result="effect1_innerShadow_4_3"/>
</filter>
</defs>
</svg>
