<svg width="1440" height="134" viewBox="0 0 1440 134" fill="none" xmlns="http://www.w3.org/2000/svg">
<rect x="-1" y="1" width="1442" height="134" fill="white" stroke="#D7D7D7" stroke-width="2"/>
<g clip-path="url(#clip0_3_52)">
<path d="M655.359 81.65L641.935 62.0029H647.984L655.358 72.7559L662.734 62.002H669.943V89.5326H664.557V68.1479L655.36 81.6509L655.359 81.65ZM646.075 89.5734H640.689V83.4284L646.075 75.5302V89.5734ZM677.232 89.5734V62.0029H682.619V82.4587L696.539 62.0029H702.836V89.5734H697.616V69.4473L683.778 89.5734H677.232ZM743.428 89.5734V62.0029H748.814V82.4587L762.735 62.0029H769.032V89.5734H763.811V69.6112L750.142 89.5734H743.428ZM786.938 62.0029C794.629 61.8837 798.434 66.128 799.696 68.4708L795.524 70.6817C793.473 66.6478 789.257 66.0495 786.938 66.1726C783.56 66.3501 778.066 68.7608 778.066 75.9404C778.066 83.1191 784.116 85.1263 787.141 85.232C791.992 85.232 794.725 82.3889 795.499 80.8393L799.696 83.1491C796.245 88.8034 790.479 89.52 787.141 89.52C777.089 89.52 772.98 81.3406 772.98 75.9404C772.98 67.4032 779.328 62.0029 786.938 62.0029Z" fill="#FC4C00"/>
<path fill-rule="evenodd" clip-rule="evenodd" d="M712.282 93.5347V89.46H733.95V93.494H739.377V85.1352H734.82V62.0031H713.607C713.566 82.4181 710.417 85.1352 709.547 85.1352H706.813V93.5347H712.282ZM729.518 66.2881H718.661C718.413 79.0629 716.258 84.4884 715.347 85.1352H729.516V66.2881H729.518Z" fill="#FC4C00"/>
</g>
<path d="M1187.47 70.7812V72.3242H1180.61V85H1178.74V70.7812H1187.47ZM1189.3 76.4648V89.0625H1187.49V74.4336H1189.15L1189.3 76.4648ZM1196.42 79.6289V79.834C1196.42 80.6022 1196.33 81.3151 1196.15 81.9727C1195.97 82.6237 1195.7 83.1901 1195.35 83.6719C1195 84.1536 1194.58 84.528 1194.07 84.7949C1193.56 85.0618 1192.98 85.1953 1192.32 85.1953C1191.65 85.1953 1191.06 85.0846 1190.54 84.8633C1190.03 84.6419 1189.59 84.3197 1189.24 83.8965C1188.88 83.4733 1188.59 82.9655 1188.38 82.373C1188.17 81.7806 1188.03 81.1133 1187.95 80.3711V79.2773C1188.03 78.4961 1188.17 77.7962 1188.39 77.1777C1188.6 76.5592 1188.88 76.0319 1189.24 75.5957C1189.59 75.153 1190.03 74.8177 1190.54 74.5898C1191.04 74.3555 1191.63 74.2383 1192.29 74.2383C1192.96 74.2383 1193.55 74.3685 1194.06 74.6289C1194.57 74.8828 1195.01 75.2474 1195.36 75.7227C1195.71 76.1979 1195.97 76.7676 1196.15 77.4316C1196.33 78.0892 1196.42 78.8216 1196.42 79.6289ZM1194.61 79.834V79.6289C1194.61 79.1016 1194.55 78.6068 1194.44 78.1445C1194.33 77.6758 1194.16 77.2656 1193.92 76.9141C1193.7 76.556 1193.4 76.276 1193.04 76.0742C1192.69 75.8659 1192.26 75.7617 1191.77 75.7617C1191.31 75.7617 1190.91 75.8398 1190.57 75.9961C1190.24 76.1523 1189.96 76.3639 1189.72 76.6309C1189.49 76.8913 1189.3 77.1908 1189.15 77.5293C1189.01 77.8613 1188.9 78.2064 1188.83 78.5645V81.0938C1188.96 81.5495 1189.14 81.9792 1189.37 82.3828C1189.61 82.7799 1189.92 83.1022 1190.31 83.3496C1190.7 83.5905 1191.19 83.7109 1191.79 83.7109C1192.27 83.7109 1192.69 83.61 1193.04 83.4082C1193.4 83.1999 1193.7 82.9167 1193.92 82.5586C1194.16 82.2005 1194.33 81.7904 1194.44 81.3281C1194.55 80.8594 1194.61 80.3613 1194.61 79.834ZM1201.58 83.9062L1204.52 74.4336H1206.45L1202.21 86.6309C1202.12 86.8913 1201.99 87.1712 1201.82 87.4707C1201.67 87.7767 1201.47 88.0664 1201.22 88.3398C1200.97 88.6133 1200.67 88.8346 1200.32 89.0039C1199.98 89.1797 1199.56 89.2676 1199.08 89.2676C1198.94 89.2676 1198.75 89.248 1198.53 89.209C1198.31 89.1699 1198.16 89.1374 1198.06 89.1113L1198.05 87.6465C1198.11 87.653 1198.19 87.6595 1198.3 87.666C1198.42 87.679 1198.5 87.6855 1198.54 87.6855C1198.95 87.6855 1199.3 87.6302 1199.59 87.5195C1199.87 87.4154 1200.12 87.2363 1200.31 86.9824C1200.51 86.735 1200.68 86.3932 1200.83 85.957L1201.58 83.9062ZM1199.42 74.4336L1202.17 82.6367L1202.63 84.541L1201.34 85.2051L1197.45 74.4336H1199.42ZM1215.12 74.4336V75.9277H1209.78V74.4336H1215.12ZM1210.05 74.4336V85H1208.24V74.4336H1210.05ZM1216.73 74.4336V85H1214.91V74.4336H1216.73ZM1226.67 74.4336V75.9277H1221.33V74.4336H1226.67ZM1221.59 74.4336V85H1219.78V74.4336H1221.59ZM1228.27 74.4336V85H1226.45V74.4336H1228.27ZM1237.4 83.1934V77.7539C1237.4 77.3372 1237.32 76.9759 1237.15 76.6699C1236.98 76.3574 1236.74 76.1165 1236.4 75.9473C1236.07 75.778 1235.66 75.6934 1235.17 75.6934C1234.72 75.6934 1234.32 75.7715 1233.97 75.9277C1233.63 76.084 1233.37 76.2891 1233.17 76.543C1232.98 76.7969 1232.89 77.0703 1232.89 77.3633H1231.08C1231.08 76.9857 1231.18 76.6113 1231.38 76.2402C1231.57 75.8691 1231.85 75.5339 1232.21 75.2344C1232.59 74.9284 1233.03 74.6875 1233.54 74.5117C1234.06 74.3294 1234.64 74.2383 1235.28 74.2383C1236.05 74.2383 1236.73 74.3685 1237.31 74.6289C1237.9 74.8893 1238.37 75.2832 1238.7 75.8105C1239.04 76.3314 1239.21 76.9857 1239.21 77.7734V82.6953C1239.21 83.0469 1239.24 83.4212 1239.29 83.8184C1239.36 84.2155 1239.45 84.5573 1239.58 84.8438V85H1237.69C1237.6 84.7917 1237.53 84.515 1237.48 84.1699C1237.43 83.8184 1237.4 83.4928 1237.4 83.1934ZM1237.71 78.5938L1237.73 79.8633H1235.91C1235.39 79.8633 1234.93 79.9056 1234.53 79.9902C1234.13 80.0684 1233.79 80.1888 1233.51 80.3516C1233.24 80.5143 1233.03 80.7194 1232.89 80.9668C1232.75 81.2077 1232.67 81.4909 1232.67 81.8164C1232.67 82.1484 1232.75 82.4512 1232.9 82.7246C1233.05 82.998 1233.27 83.2161 1233.57 83.3789C1233.88 83.5352 1234.25 83.6133 1234.7 83.6133C1235.25 83.6133 1235.74 83.4961 1236.16 83.2617C1236.58 83.0273 1236.92 82.7409 1237.17 82.4023C1237.42 82.0638 1237.56 81.735 1237.58 81.416L1238.35 82.2852C1238.3 82.5586 1238.18 82.8613 1237.98 83.1934C1237.77 83.5254 1237.5 83.8444 1237.17 84.1504C1236.83 84.4499 1236.44 84.7005 1235.97 84.9023C1235.52 85.0977 1235 85.1953 1234.43 85.1953C1233.72 85.1953 1233.09 85.0553 1232.55 84.7754C1232.01 84.4954 1231.6 84.1211 1231.3 83.6523C1231 83.1771 1230.86 82.6465 1230.86 82.0605C1230.86 81.4941 1230.97 80.9961 1231.19 80.5664C1231.41 80.1302 1231.73 79.7689 1232.15 79.4824C1232.56 79.1895 1233.06 78.9681 1233.65 78.8184C1234.24 78.6686 1234.89 78.5938 1235.61 78.5938H1237.71ZM1258.14 70.7812V85H1256.27V72.3242H1249.26V85H1247.37V70.7812H1258.14ZM1265.05 78.2129V79.6973H1260.28V78.2129H1265.05ZM1272.56 70.7031V85H1270.75V72.959L1267.11 74.2871V72.6562L1272.27 70.7031H1272.56ZM1283.81 70.7031V85H1282V72.959L1278.36 74.2871V72.6562L1283.52 70.7031H1283.81ZM1290.96 82.8516V84.3066C1290.96 84.8991 1290.81 85.5241 1290.51 86.1816C1290.21 86.8457 1289.79 87.3991 1289.25 87.8418L1288.22 87.1289C1288.43 86.8424 1288.6 86.5495 1288.75 86.25C1288.89 85.957 1289 85.651 1289.07 85.332C1289.15 85.0195 1289.19 84.6875 1289.19 84.3359V82.8516H1290.96ZM1309.35 70.7812V85H1307.48V72.3242H1300.47V85H1298.58V70.7812H1309.35ZM1316.26 78.2129V79.6973H1311.49V78.2129H1316.26ZM1323.77 70.7031V85H1321.96V72.959L1318.32 74.2871V72.6562L1323.48 70.7031H1323.77ZM1330.88 83.4863H1331.06C1332.1 83.4863 1332.95 83.3398 1333.6 83.0469C1334.25 82.7539 1334.75 82.36 1335.11 81.8652C1335.46 81.3704 1335.7 80.8138 1335.83 80.1953C1335.96 79.5703 1336.02 78.929 1336.02 78.2715V76.0938C1336.02 75.4492 1335.95 74.8763 1335.8 74.375C1335.66 73.8737 1335.45 73.4538 1335.19 73.1152C1334.94 72.7767 1334.65 72.5195 1334.32 72.3438C1334 72.168 1333.65 72.0801 1333.29 72.0801C1332.87 72.0801 1332.5 72.1647 1332.17 72.334C1331.84 72.4967 1331.56 72.7279 1331.34 73.0273C1331.11 73.3268 1330.95 73.6784 1330.83 74.082C1330.71 74.4857 1330.65 74.9251 1330.65 75.4004C1330.65 75.8236 1330.7 76.2337 1330.81 76.6309C1330.91 77.028 1331.07 77.3861 1331.29 77.7051C1331.5 78.0241 1331.77 78.278 1332.09 78.4668C1332.41 78.6491 1332.79 78.7402 1333.23 78.7402C1333.63 78.7402 1334.01 78.6621 1334.36 78.5059C1334.72 78.3431 1335.04 78.125 1335.31 77.8516C1335.59 77.5716 1335.81 77.2559 1335.97 76.9043C1336.14 76.5527 1336.24 76.1849 1336.27 75.8008H1337.13C1337.13 76.3411 1337.02 76.875 1336.8 77.4023C1336.6 77.9232 1336.3 78.3984 1335.93 78.8281C1335.55 79.2578 1335.11 79.6029 1334.6 79.8633C1334.09 80.1172 1333.54 80.2441 1332.94 80.2441C1332.23 80.2441 1331.63 80.1074 1331.11 79.834C1330.6 79.5605 1330.17 79.196 1329.84 78.7402C1329.52 78.2845 1329.27 77.7767 1329.11 77.2168C1328.95 76.6504 1328.88 76.0775 1328.88 75.498C1328.88 74.821 1328.97 74.1862 1329.16 73.5938C1329.35 73.0013 1329.63 72.4805 1330 72.0312C1330.37 71.5755 1330.83 71.2207 1331.38 70.9668C1331.93 70.7129 1332.57 70.5859 1333.29 70.5859C1334.1 70.5859 1334.8 70.7487 1335.37 71.0742C1335.94 71.3997 1336.41 71.8359 1336.77 72.3828C1337.13 72.9297 1337.4 73.5449 1337.57 74.2285C1337.74 74.9121 1337.82 75.6152 1337.82 76.3379V76.9922C1337.82 77.7279 1337.77 78.4766 1337.67 79.2383C1337.58 79.9935 1337.4 80.7161 1337.14 81.4062C1336.88 82.0964 1336.5 82.7148 1335.99 83.2617C1335.49 83.8021 1334.84 84.2318 1334.03 84.5508C1333.23 84.8633 1332.24 85.0195 1331.06 85.0195H1330.88V83.4863Z" fill="black"/>
<path d="M110.234 68.4785H112.109C112.012 69.377 111.755 70.181 111.338 70.8906C110.921 71.6003 110.332 72.1634 109.57 72.5801C108.809 72.9902 107.858 73.1953 106.719 73.1953C105.885 73.1953 105.127 73.0391 104.443 72.7266C103.766 72.4141 103.184 71.9714 102.695 71.3984C102.207 70.819 101.829 70.1257 101.562 69.3184C101.302 68.5046 101.172 67.5996 101.172 66.6035V65.1875C101.172 64.1914 101.302 63.2897 101.562 62.4824C101.829 61.6686 102.21 60.972 102.705 60.3926C103.206 59.8132 103.809 59.3672 104.512 59.0547C105.215 58.7422 106.006 58.5859 106.885 58.5859C107.959 58.5859 108.867 58.7878 109.609 59.1914C110.352 59.5951 110.928 60.1549 111.338 60.8711C111.755 61.5807 112.012 62.4043 112.109 63.3418H110.234C110.143 62.6777 109.974 62.1081 109.727 61.6328C109.479 61.151 109.128 60.7799 108.672 60.5195C108.216 60.2591 107.62 60.1289 106.885 60.1289C106.253 60.1289 105.697 60.2493 105.215 60.4902C104.74 60.7311 104.339 61.0729 104.014 61.5156C103.695 61.9583 103.454 62.4889 103.291 63.1074C103.128 63.7259 103.047 64.4128 103.047 65.168V66.6035C103.047 67.3001 103.118 67.9544 103.262 68.5664C103.411 69.1784 103.636 69.7155 103.936 70.1777C104.235 70.64 104.616 71.0046 105.078 71.2715C105.54 71.5319 106.087 71.6621 106.719 71.6621C107.52 71.6621 108.158 71.5352 108.633 71.2812C109.108 71.0273 109.466 70.6628 109.707 70.1875C109.954 69.7122 110.13 69.1426 110.234 68.4785ZM116.309 62.4336H118.115L117.959 66.3887C117.92 67.3913 117.806 68.2572 117.617 68.9863C117.428 69.7155 117.188 70.3372 116.895 70.8516C116.602 71.3594 116.273 71.7858 115.908 72.1309C115.55 72.4759 115.179 72.7656 114.795 73H113.896L113.945 71.5254L114.316 71.5156C114.531 71.2617 114.74 71.0013 114.941 70.7344C115.143 70.4609 115.329 70.1387 115.498 69.7676C115.667 69.39 115.807 68.931 115.918 68.3906C116.035 67.8438 116.11 67.1764 116.143 66.3887L116.309 62.4336ZM116.758 62.4336H123.115V73H121.309V64.1035H116.758V62.4336ZM113.486 71.5156H124.473V76.1152H122.666V73H115.293V76.1152H113.477L113.486 71.5156ZM130.859 73.1953C130.124 73.1953 129.456 73.0716 128.857 72.8242C128.265 72.5703 127.754 72.2155 127.324 71.7598C126.901 71.304 126.576 70.7637 126.348 70.1387C126.12 69.5137 126.006 68.8301 126.006 68.0879V67.6777C126.006 66.8184 126.133 66.0534 126.387 65.3828C126.641 64.7057 126.986 64.1328 127.422 63.6641C127.858 63.1953 128.353 62.8405 128.906 62.5996C129.46 62.3587 130.033 62.2383 130.625 62.2383C131.38 62.2383 132.031 62.3685 132.578 62.6289C133.132 62.8893 133.584 63.2539 133.936 63.7227C134.287 64.1849 134.548 64.7318 134.717 65.3633C134.886 65.9883 134.971 66.6719 134.971 67.4141V68.2246H127.08V66.75H133.164V66.6133C133.138 66.1445 133.04 65.6888 132.871 65.2461C132.708 64.8034 132.448 64.4388 132.09 64.1523C131.732 63.8659 131.243 63.7227 130.625 63.7227C130.215 63.7227 129.837 63.8105 129.492 63.9863C129.147 64.1556 128.851 64.4095 128.604 64.748C128.356 65.0866 128.164 65.5 128.027 65.9883C127.891 66.4766 127.822 67.0397 127.822 67.6777V68.0879C127.822 68.5892 127.891 69.0612 128.027 69.5039C128.171 69.9401 128.376 70.3242 128.643 70.6562C128.916 70.9883 129.245 71.2487 129.629 71.4375C130.02 71.6263 130.462 71.7207 130.957 71.7207C131.595 71.7207 132.135 71.5905 132.578 71.3301C133.021 71.0697 133.408 70.7214 133.74 70.2852L134.834 71.1543C134.606 71.4993 134.316 71.8281 133.965 72.1406C133.613 72.4531 133.18 72.707 132.666 72.9023C132.158 73.0977 131.556 73.1953 130.859 73.1953ZM144.141 62.4336V63.9277H139.033V62.4336H144.141ZM145.732 62.4336V73H143.926V62.4336H145.732ZM138.594 62.4336H140.41L140.137 67.5312C140.091 68.319 140.016 69.0156 139.912 69.6211C139.814 70.2201 139.678 70.7344 139.502 71.1641C139.333 71.5938 139.118 71.9453 138.857 72.2188C138.604 72.4857 138.298 72.6842 137.939 72.8145C137.581 72.9382 137.168 73 136.699 73H136.133V71.4082L136.523 71.3789C136.803 71.3594 137.041 71.2943 137.236 71.1836C137.438 71.0729 137.607 70.9102 137.744 70.6953C137.881 70.474 137.992 70.1908 138.076 69.8457C138.167 69.5007 138.236 69.0905 138.281 68.6152C138.333 68.14 138.372 67.5866 138.398 66.9551L138.594 62.4336ZM154.873 71.1934V65.7539C154.873 65.3372 154.788 64.9759 154.619 64.6699C154.456 64.3574 154.209 64.1165 153.877 63.9473C153.545 63.778 153.135 63.6934 152.646 63.6934C152.191 63.6934 151.79 63.7715 151.445 63.9277C151.107 64.084 150.84 64.2891 150.645 64.543C150.456 64.7969 150.361 65.0703 150.361 65.3633H148.555C148.555 64.9857 148.652 64.6113 148.848 64.2402C149.043 63.8691 149.323 63.5339 149.688 63.2344C150.059 62.9284 150.501 62.6875 151.016 62.5117C151.536 62.3294 152.116 62.2383 152.754 62.2383C153.522 62.2383 154.199 62.3685 154.785 62.6289C155.378 62.8893 155.84 63.2832 156.172 63.8105C156.51 64.3314 156.68 64.9857 156.68 65.7734V70.6953C156.68 71.0469 156.709 71.4212 156.768 71.8184C156.833 72.2155 156.927 72.5573 157.051 72.8438V73H155.166C155.075 72.7917 155.003 72.515 154.951 72.1699C154.899 71.8184 154.873 71.4928 154.873 71.1934ZM155.186 66.5938L155.205 67.8633H153.379C152.865 67.8633 152.406 67.9056 152.002 67.9902C151.598 68.0684 151.26 68.1888 150.986 68.3516C150.713 68.5143 150.505 68.7194 150.361 68.9668C150.218 69.2077 150.146 69.4909 150.146 69.8164C150.146 70.1484 150.221 70.4512 150.371 70.7246C150.521 70.998 150.745 71.2161 151.045 71.3789C151.351 71.5352 151.725 71.6133 152.168 71.6133C152.721 71.6133 153.21 71.4961 153.633 71.2617C154.056 71.0273 154.391 70.7409 154.639 70.4023C154.893 70.0638 155.029 69.735 155.049 69.416L155.82 70.2852C155.775 70.5586 155.651 70.8613 155.449 71.1934C155.247 71.5254 154.977 71.8444 154.639 72.1504C154.307 72.4499 153.91 72.7005 153.447 72.9023C152.992 73.0977 152.477 73.1953 151.904 73.1953C151.188 73.1953 150.56 73.0553 150.02 72.7754C149.486 72.4954 149.069 72.1211 148.77 71.6523C148.477 71.1771 148.33 70.6465 148.33 70.0605C148.33 69.4941 148.441 68.9961 148.662 68.5664C148.883 68.1302 149.202 67.7689 149.619 67.4824C150.036 67.1895 150.537 66.9681 151.123 66.8184C151.709 66.6686 152.363 66.5938 153.086 66.5938H155.186ZM166.689 67.0137V68.4785H161.104V67.0137H166.689ZM161.484 62.4336V73H159.678V62.4336H161.484ZM168.154 62.4336V73H166.338V62.4336H168.154ZM170.586 67.834V67.6094C170.586 66.8477 170.697 66.1413 170.918 65.4902C171.139 64.8327 171.458 64.263 171.875 63.7812C172.292 63.293 172.796 62.9154 173.389 62.6484C173.981 62.375 174.645 62.2383 175.381 62.2383C176.123 62.2383 176.79 62.375 177.383 62.6484C177.982 62.9154 178.49 63.293 178.906 63.7812C179.329 64.263 179.652 64.8327 179.873 65.4902C180.094 66.1413 180.205 66.8477 180.205 67.6094V67.834C180.205 68.5957 180.094 69.3021 179.873 69.9531C179.652 70.6042 179.329 71.1738 178.906 71.6621C178.49 72.1439 177.985 72.5215 177.393 72.7949C176.807 73.0618 176.143 73.1953 175.4 73.1953C174.658 73.1953 173.991 73.0618 173.398 72.7949C172.806 72.5215 172.298 72.1439 171.875 71.6621C171.458 71.1738 171.139 70.6042 170.918 69.9531C170.697 69.3021 170.586 68.5957 170.586 67.834ZM172.393 67.6094V67.834C172.393 68.3613 172.454 68.8594 172.578 69.3281C172.702 69.7904 172.887 70.2005 173.135 70.5586C173.389 70.9167 173.704 71.1999 174.082 71.4082C174.46 71.61 174.899 71.7109 175.4 71.7109C175.895 71.7109 176.328 71.61 176.699 71.4082C177.077 71.1999 177.389 70.9167 177.637 70.5586C177.884 70.2005 178.07 69.7904 178.193 69.3281C178.324 68.8594 178.389 68.3613 178.389 67.834V67.6094C178.389 67.0885 178.324 66.597 178.193 66.1348C178.07 65.666 177.881 65.2526 177.627 64.8945C177.38 64.5299 177.067 64.2435 176.689 64.0352C176.318 63.8268 175.882 63.7227 175.381 63.7227C174.886 63.7227 174.45 63.8268 174.072 64.0352C173.701 64.2435 173.389 64.5299 173.135 64.8945C172.887 65.2526 172.702 65.666 172.578 66.1348C172.454 66.597 172.393 67.0885 172.393 67.6094ZM191.66 71.7109C192.09 71.7109 192.487 71.623 192.852 71.4473C193.216 71.2715 193.516 71.0306 193.75 70.7246C193.984 70.4121 194.118 70.0573 194.15 69.6602H195.869C195.837 70.2852 195.625 70.8678 195.234 71.4082C194.85 71.9421 194.346 72.375 193.721 72.707C193.096 73.0326 192.409 73.1953 191.66 73.1953C190.866 73.1953 190.173 73.0553 189.58 72.7754C188.994 72.4954 188.506 72.1113 188.115 71.623C187.731 71.1348 187.441 70.5749 187.246 69.9434C187.057 69.3053 186.963 68.6315 186.963 67.9219V67.5117C186.963 66.8021 187.057 66.1315 187.246 65.5C187.441 64.862 187.731 64.2988 188.115 63.8105C188.506 63.3223 188.994 62.9382 189.58 62.6582C190.173 62.3783 190.866 62.2383 191.66 62.2383C192.487 62.2383 193.21 62.4076 193.828 62.7461C194.447 63.0781 194.932 63.5339 195.283 64.1133C195.641 64.6862 195.837 65.3372 195.869 66.0664H194.15C194.118 65.6302 193.994 65.2363 193.779 64.8848C193.571 64.5332 193.285 64.2533 192.92 64.0449C192.562 63.8301 192.142 63.7227 191.66 63.7227C191.107 63.7227 190.641 63.8333 190.264 64.0547C189.893 64.2695 189.596 64.5625 189.375 64.9336C189.16 65.2982 189.004 65.7051 188.906 66.1543C188.815 66.597 188.77 67.0495 188.77 67.5117V67.9219C188.77 68.3841 188.815 68.8398 188.906 69.2891C188.997 69.7383 189.15 70.1452 189.365 70.5098C189.587 70.8743 189.883 71.1673 190.254 71.3887C190.632 71.6035 191.1 71.7109 191.66 71.7109ZM202.207 62.4336V73H200.391V62.4336H202.207ZM205.752 62.4336V63.8984H196.914V62.4336H205.752ZM210.615 71.9062L213.555 62.4336H215.488L211.25 74.6309C211.152 74.8913 211.022 75.1712 210.859 75.4707C210.703 75.7767 210.501 76.0664 210.254 76.3398C210.007 76.6133 209.707 76.8346 209.355 77.0039C209.01 77.1797 208.597 77.2676 208.115 77.2676C207.972 77.2676 207.79 77.248 207.568 77.209C207.347 77.1699 207.191 77.1374 207.1 77.1113L207.09 75.6465C207.142 75.653 207.223 75.6595 207.334 75.666C207.451 75.679 207.533 75.6855 207.578 75.6855C207.988 75.6855 208.337 75.6302 208.623 75.5195C208.91 75.4154 209.15 75.2363 209.346 74.9824C209.548 74.735 209.72 74.3932 209.863 73.957L210.615 71.9062ZM208.457 62.4336L211.201 70.6367L211.67 72.541L210.371 73.2051L206.484 62.4336H208.457ZM218.477 62.4336H220.283L220.127 66.3887C220.088 67.3913 219.974 68.2572 219.785 68.9863C219.596 69.7155 219.355 70.3372 219.062 70.8516C218.77 71.3594 218.441 71.7858 218.076 72.1309C217.718 72.4759 217.347 72.7656 216.963 73H216.064L216.113 71.5254L216.484 71.5156C216.699 71.2617 216.908 71.0013 217.109 70.7344C217.311 70.4609 217.497 70.1387 217.666 69.7676C217.835 69.39 217.975 68.931 218.086 68.3906C218.203 67.8438 218.278 67.1764 218.311 66.3887L218.477 62.4336ZM218.926 62.4336H225.283V73H223.477V64.1035H218.926V62.4336ZM215.654 71.5156H226.641V76.1152H224.834V73H217.461V76.1152H215.645L215.654 71.5156ZM233.027 73.1953C232.292 73.1953 231.624 73.0716 231.025 72.8242C230.433 72.5703 229.922 72.2155 229.492 71.7598C229.069 71.304 228.743 70.7637 228.516 70.1387C228.288 69.5137 228.174 68.8301 228.174 68.0879V67.6777C228.174 66.8184 228.301 66.0534 228.555 65.3828C228.809 64.7057 229.154 64.1328 229.59 63.6641C230.026 63.1953 230.521 62.8405 231.074 62.5996C231.628 62.3587 232.201 62.2383 232.793 62.2383C233.548 62.2383 234.199 62.3685 234.746 62.6289C235.299 62.8893 235.752 63.2539 236.104 63.7227C236.455 64.1849 236.715 64.7318 236.885 65.3633C237.054 65.9883 237.139 66.6719 237.139 67.4141V68.2246H229.248V66.75H235.332V66.6133C235.306 66.1445 235.208 65.6888 235.039 65.2461C234.876 64.8034 234.616 64.4388 234.258 64.1523C233.9 63.8659 233.411 63.7227 232.793 63.7227C232.383 63.7227 232.005 63.8105 231.66 63.9863C231.315 64.1556 231.019 64.4095 230.771 64.748C230.524 65.0866 230.332 65.5 230.195 65.9883C230.059 66.4766 229.99 67.0397 229.99 67.6777V68.0879C229.99 68.5892 230.059 69.0612 230.195 69.5039C230.339 69.9401 230.544 70.3242 230.811 70.6562C231.084 70.9883 231.413 71.2487 231.797 71.4375C232.188 71.6263 232.63 71.7207 233.125 71.7207C233.763 71.7207 234.303 71.5905 234.746 71.3301C235.189 71.0697 235.576 70.7214 235.908 70.2852L237.002 71.1543C236.774 71.4993 236.484 71.8281 236.133 72.1406C235.781 72.4531 235.348 72.707 234.834 72.9023C234.326 73.0977 233.724 73.1953 233.027 73.1953ZM246.416 67.0137V68.4785H240.83V67.0137H246.416ZM241.211 62.4336V73H239.404V62.4336H241.211ZM247.881 62.4336V73H246.064V62.4336H247.881ZM255.098 62.4336V73H253.281V62.4336H255.098ZM258.643 62.4336V63.8984H249.805V62.4336H258.643ZM266.494 71.1934V65.7539C266.494 65.3372 266.41 64.9759 266.24 64.6699C266.077 64.3574 265.83 64.1165 265.498 63.9473C265.166 63.778 264.756 63.6934 264.268 63.6934C263.812 63.6934 263.411 63.7715 263.066 63.9277C262.728 64.084 262.461 64.2891 262.266 64.543C262.077 64.7969 261.982 65.0703 261.982 65.3633H260.176C260.176 64.9857 260.273 64.6113 260.469 64.2402C260.664 63.8691 260.944 63.5339 261.309 63.2344C261.68 62.9284 262.122 62.6875 262.637 62.5117C263.158 62.3294 263.737 62.2383 264.375 62.2383C265.143 62.2383 265.82 62.3685 266.406 62.6289C266.999 62.8893 267.461 63.2832 267.793 63.8105C268.132 64.3314 268.301 64.9857 268.301 65.7734V70.6953C268.301 71.0469 268.33 71.4212 268.389 71.8184C268.454 72.2155 268.548 72.5573 268.672 72.8438V73H266.787C266.696 72.7917 266.624 72.515 266.572 72.1699C266.52 71.8184 266.494 71.4928 266.494 71.1934ZM266.807 66.5938L266.826 67.8633H265C264.486 67.8633 264.027 67.9056 263.623 67.9902C263.219 68.0684 262.881 68.1888 262.607 68.3516C262.334 68.5143 262.126 68.7194 261.982 68.9668C261.839 69.2077 261.768 69.4909 261.768 69.8164C261.768 70.1484 261.842 70.4512 261.992 70.7246C262.142 70.998 262.367 71.2161 262.666 71.3789C262.972 71.5352 263.346 71.6133 263.789 71.6133C264.342 71.6133 264.831 71.4961 265.254 71.2617C265.677 71.0273 266.012 70.7409 266.26 70.4023C266.514 70.0638 266.65 69.735 266.67 69.416L267.441 70.2852C267.396 70.5586 267.272 70.8613 267.07 71.1934C266.868 71.5254 266.598 71.8444 266.26 72.1504C265.928 72.4499 265.531 72.7005 265.068 72.9023C264.613 73.0977 264.098 73.1953 263.525 73.1953C262.809 73.1953 262.181 73.0553 261.641 72.7754C261.107 72.4954 260.69 72.1211 260.391 71.6523C260.098 71.1771 259.951 70.6465 259.951 70.0605C259.951 69.4941 260.062 68.9961 260.283 68.5664C260.505 68.1302 260.824 67.7689 261.24 67.4824C261.657 67.1895 262.158 66.9681 262.744 66.8184C263.33 66.6686 263.984 66.5938 264.707 66.5938H266.807ZM277.217 70.5977L280.811 62.4336H282.549L277.842 73H276.592L271.904 62.4336H273.643L277.217 70.5977ZM273.115 62.4336V73H271.309V62.4336H273.115ZM281.26 73V62.4336H283.076V73H281.26ZM287.939 70.1387L292.812 62.4336H294.629V73H292.812V65.2949L287.939 73H286.143V62.4336H287.939V70.1387ZM109.512 90.1602H110.938C110.938 91.1823 110.645 91.9505 110.059 92.4648C109.479 92.9727 108.691 93.2266 107.695 93.2266C107.005 93.2266 106.406 93.0671 105.898 92.748C105.397 92.429 105.007 91.9863 104.727 91.4199C104.453 90.8535 104.316 90.196 104.316 89.4473V88.3242C104.316 87.5755 104.453 86.918 104.727 86.3516C105.007 85.7852 105.397 85.3424 105.898 85.0234C106.406 84.7044 107.005 84.5449 107.695 84.5449C108.691 84.5449 109.482 84.7988 110.068 85.3066C110.654 85.8145 110.947 86.5794 110.947 87.6016H109.521C109.521 86.957 109.365 86.4948 109.053 86.2148C108.747 85.9349 108.294 85.7949 107.695 85.7949C107.266 85.7949 106.904 85.9023 106.611 86.1172C106.318 86.332 106.097 86.6315 105.947 87.0156C105.798 87.3932 105.723 87.8262 105.723 88.3145V89.4473C105.723 89.9421 105.798 90.3815 105.947 90.7656C106.097 91.1432 106.318 91.4395 106.611 91.6543C106.904 91.8691 107.266 91.9766 107.695 91.9766C108.294 91.9766 108.747 91.8366 109.053 91.5566C109.359 91.2767 109.512 90.8112 109.512 90.1602ZM102.021 88.8809C102.021 89.7467 102.171 90.554 102.471 91.3027C102.77 92.0514 103.187 92.7057 103.721 93.2656C104.255 93.8255 104.873 94.2617 105.576 94.5742C106.279 94.8867 107.031 95.043 107.832 95.043C108.633 95.043 109.382 94.8867 110.078 94.5742C110.781 94.2617 111.396 93.8255 111.924 93.2656C112.458 92.7057 112.874 92.0514 113.174 91.3027C113.473 90.554 113.623 89.7467 113.623 88.8809C113.623 88.0085 113.473 87.2012 113.174 86.459C112.874 85.7168 112.458 85.069 111.924 84.5156C111.396 83.9557 110.781 83.5228 110.078 83.2168C109.382 82.9043 108.633 82.748 107.832 82.748C107.031 82.748 106.279 82.9043 105.576 83.2168C104.873 83.5228 104.255 83.9557 103.721 84.5156C103.187 85.069 102.77 85.7168 102.471 86.459C102.171 87.2012 102.021 88.0085 102.021 88.8809ZM100.898 88.8809C100.898 87.8457 101.077 86.8854 101.436 86C101.794 85.1146 102.292 84.3431 102.93 83.6855C103.568 83.0215 104.303 82.5072 105.137 82.1426C105.977 81.7715 106.875 81.5859 107.832 81.5859C108.789 81.5859 109.684 81.7715 110.518 82.1426C111.357 82.5072 112.093 83.0215 112.725 83.6855C113.363 84.3431 113.861 85.1146 114.219 86C114.577 86.8854 114.756 87.8457 114.756 88.8809C114.756 89.916 114.577 90.8763 114.219 91.7617C113.861 92.6471 113.363 93.4251 112.725 94.0957C112.093 94.7598 111.357 95.2773 110.518 95.6484C109.684 96.0195 108.789 96.2051 107.832 96.2051C106.875 96.2051 105.977 96.0195 105.137 95.6484C104.303 95.2773 103.568 94.7598 102.93 94.0957C102.292 93.4251 101.794 92.6471 101.436 91.7617C101.077 90.8763 100.898 89.916 100.898 88.8809ZM131.182 94.5156V96H121.875V94.7012L126.533 89.5156C127.106 88.8776 127.549 88.3372 127.861 87.8945C128.18 87.4453 128.402 87.0449 128.525 86.6934C128.656 86.3353 128.721 85.9707 128.721 85.5996C128.721 85.1309 128.623 84.7077 128.428 84.3301C128.239 83.946 127.959 83.64 127.588 83.4121C127.217 83.1842 126.768 83.0703 126.24 83.0703C125.609 83.0703 125.081 83.194 124.658 83.4414C124.242 83.6823 123.929 84.0208 123.721 84.457C123.512 84.8932 123.408 85.3945 123.408 85.9609H121.602C121.602 85.1602 121.777 84.4277 122.129 83.7637C122.48 83.0996 123.001 82.5723 123.691 82.1816C124.382 81.7845 125.231 81.5859 126.24 81.5859C127.139 81.5859 127.907 81.7454 128.545 82.0645C129.183 82.377 129.671 82.8197 130.01 83.3926C130.355 83.959 130.527 84.623 130.527 85.3848C130.527 85.8014 130.456 86.2246 130.312 86.6543C130.176 87.0775 129.984 87.5007 129.736 87.9238C129.495 88.347 129.212 88.7637 128.887 89.1738C128.568 89.584 128.226 89.9876 127.861 90.3848L124.053 94.5156H131.182ZM142.041 87.7578V89.9258C142.041 91.0911 141.937 92.0742 141.729 92.875C141.52 93.6758 141.221 94.3203 140.83 94.8086C140.439 95.2969 139.967 95.6517 139.414 95.873C138.867 96.0879 138.249 96.1953 137.559 96.1953C137.012 96.1953 136.507 96.127 136.045 95.9902C135.583 95.8535 135.166 95.6354 134.795 95.3359C134.43 95.0299 134.118 94.6328 133.857 94.1445C133.597 93.6562 133.398 93.0638 133.262 92.3672C133.125 91.6706 133.057 90.8568 133.057 89.9258V87.7578C133.057 86.5924 133.161 85.6159 133.369 84.8281C133.584 84.0404 133.887 83.4089 134.277 82.9336C134.668 82.4518 135.137 82.1068 135.684 81.8984C136.237 81.6901 136.855 81.5859 137.539 81.5859C138.092 81.5859 138.6 81.6543 139.062 81.791C139.531 81.9212 139.948 82.1328 140.312 82.4258C140.677 82.7122 140.986 83.0964 141.24 83.5781C141.501 84.0534 141.699 84.6361 141.836 85.3262C141.973 86.0163 142.041 86.8268 142.041 87.7578ZM140.225 90.2188V87.4551C140.225 86.8171 140.186 86.2572 140.107 85.7754C140.036 85.2871 139.928 84.8704 139.785 84.5254C139.642 84.1803 139.46 83.9004 139.238 83.6855C139.023 83.4707 138.773 83.3145 138.486 83.2168C138.206 83.1126 137.891 83.0605 137.539 83.0605C137.109 83.0605 136.729 83.1419 136.396 83.3047C136.064 83.4609 135.785 83.7116 135.557 84.0566C135.335 84.4017 135.166 84.8542 135.049 85.4141C134.932 85.974 134.873 86.6543 134.873 87.4551V90.2188C134.873 90.8568 134.909 91.4199 134.98 91.9082C135.059 92.3965 135.173 92.8197 135.322 93.1777C135.472 93.5293 135.654 93.819 135.869 94.0469C136.084 94.2747 136.331 94.444 136.611 94.5547C136.898 94.6589 137.214 94.7109 137.559 94.7109C138.001 94.7109 138.389 94.6263 138.721 94.457C139.053 94.2878 139.329 94.0241 139.551 93.666C139.779 93.3014 139.948 92.8359 140.059 92.2695C140.169 91.6966 140.225 91.013 140.225 90.2188ZM153.682 94.5156V96H144.375V94.7012L149.033 89.5156C149.606 88.8776 150.049 88.3372 150.361 87.8945C150.68 87.4453 150.902 87.0449 151.025 86.6934C151.156 86.3353 151.221 85.9707 151.221 85.5996C151.221 85.1309 151.123 84.7077 150.928 84.3301C150.739 83.946 150.459 83.64 150.088 83.4121C149.717 83.1842 149.268 83.0703 148.74 83.0703C148.109 83.0703 147.581 83.194 147.158 83.4414C146.742 83.6823 146.429 84.0208 146.221 84.457C146.012 84.8932 145.908 85.3945 145.908 85.9609H144.102C144.102 85.1602 144.277 84.4277 144.629 83.7637C144.98 83.0996 145.501 82.5723 146.191 82.1816C146.882 81.7845 147.731 81.5859 148.74 81.5859C149.639 81.5859 150.407 81.7454 151.045 82.0645C151.683 82.377 152.171 82.8197 152.51 83.3926C152.855 83.959 153.027 84.623 153.027 85.3848C153.027 85.8014 152.956 86.2246 152.812 86.6543C152.676 87.0775 152.484 87.5007 152.236 87.9238C151.995 88.347 151.712 88.7637 151.387 89.1738C151.068 89.584 150.726 89.9876 150.361 90.3848L146.553 94.5156H153.682ZM157.9 89.2324L156.455 88.8613L157.168 81.7812H164.463V83.4512H158.701L158.271 87.3184C158.532 87.1686 158.861 87.0286 159.258 86.8984C159.661 86.7682 160.124 86.7031 160.645 86.7031C161.302 86.7031 161.891 86.8171 162.412 87.0449C162.933 87.2663 163.376 87.5853 163.74 88.002C164.111 88.4186 164.395 88.9199 164.59 89.5059C164.785 90.0918 164.883 90.7461 164.883 91.4688C164.883 92.1523 164.788 92.7806 164.6 93.3535C164.417 93.9264 164.141 94.4277 163.77 94.8574C163.398 95.2806 162.93 95.6094 162.363 95.8438C161.803 96.0781 161.143 96.1953 160.381 96.1953C159.808 96.1953 159.264 96.1172 158.75 95.9609C158.242 95.7982 157.786 95.554 157.383 95.2285C156.986 94.8965 156.66 94.4863 156.406 93.998C156.159 93.5033 156.003 92.9238 155.938 92.2598H157.656C157.734 92.7936 157.891 93.2428 158.125 93.6074C158.359 93.972 158.665 94.2487 159.043 94.4375C159.427 94.6198 159.873 94.7109 160.381 94.7109C160.811 94.7109 161.191 94.6361 161.523 94.4863C161.855 94.3366 162.135 94.1217 162.363 93.8418C162.591 93.5618 162.764 93.2233 162.881 92.8262C163.005 92.429 163.066 91.9831 163.066 91.4883C163.066 91.0391 163.005 90.6224 162.881 90.2383C162.757 89.8542 162.572 89.5189 162.324 89.2324C162.083 88.946 161.787 88.7246 161.436 88.5684C161.084 88.4056 160.68 88.3242 160.225 88.3242C159.619 88.3242 159.16 88.4056 158.848 88.5684C158.542 88.7311 158.226 88.9525 157.9 89.2324Z" fill="#050505"/>
<defs>
<clipPath id="clip0_3_52">
<rect width="160" height="32" fill="white" transform="translate(640 62)"/>
</clipPath>
</defs>
</svg>
